<?xml version="1.0" encoding="UTF-8"?>
<svg id="Ebene_1" xmlns="http://www.w3.org/2000/svg" xmlns:xlink="http://www.w3.org/1999/xlink" version="1.1" viewBox="0 0 1398.51 479.97">
  <!-- Generator: Adobe Illustrator 30.4.0, SVG Export Plug-In . SVG Version: 2.1.4 Build 226)  -->
  <defs>
    <style>
      .st0 {
        fill: none;
      }

      .st1 {
        mask: url(#mask);
      }

      .st2 {
        fill: url(#linear-gradient2);
      }

      .st3 {
        fill: url(#linear-gradient1);
      }

      .st4 {
        fill: #2c130d;
      }

      .st5 {
        fill: #b7b2b2;
      }

      .st6 {
        fill: #282727;
      }

      .st7 {
        fill: #111;
      }

      .st8 {
        fill: #343333;
      }

      .st9 {
        fill: #48170f;
      }

      .st10 {
        fill: #922514;
      }

      .st11 {
        fill: #191212;
      }

      .st12 {
        fill: url(#linear-gradient);
      }

      .st13 {
        fill: #d8d7d6;
      }

      .st14 {
        fill: #60130f;
      }

      .st15 {
        mask: url(#mask-1);
      }

      .st16 {
        clip-path: url(#clippath-1);
      }

      .st17 {
        fill: #26201e;
      }

      .st18 {
        fill: #afaaaa;
      }

      .st19 {
        fill: #020202;
      }

      .st20 {
        fill: #0c0b0b;
      }

      .st21 {
        fill: #383938;
      }

      .st22 {
        fill: #3b3937;
      }

      .st23 {
        fill: #c71618;
      }

      .st24 {
        fill: #ea5b22;
      }

      .st25 {
        clip-path: url(#clippath);
      }
    </style>
    <clipPath id="clippath">
      <path class="st24" d="M1390.95,281.65v-16.22l-4.06-55.96s-10.54,2.43-17.84-15.41l-10.54-56.77-44.61-39.74s-64.07-42.99-85.16-54.34l-7.3-16.22,16.22-11.35-97.33-8.92c-211.73-10.16-416.59-12.24-510.11,19.06,0,0-39.78-.41-187.39,85.92l-44.61,26.81-33.66,2.84-3.96-1.84-179.74,31.85c-1.93.8-168.6,24.15-166.27,135.45l-4.06,4.06,2.43,32.44-4.05,11.35,1.62,30.01-10.54,11.36,76.24,13.79,26.76,4.05h38.93s-9.09-29.17-2.6-69.73c0,0,18.82-71.8,77.63-86.4,0,0,180.46-50.69,182.89,146.39l4.05,9.73,34.88-7.3,601.8-16.22,10.54-8.11s-1.62-34.88,6.49-61.64c25.95-90.03,103.63-93.56,138.69-92.46,0,0,102.19-8.11,116.79,138.69l60.02-11.35s42.17-42.99,17.84-73.81"/>
    </clipPath>
    <clipPath id="clippath-1">
      <polyline class="st0" points="-60.83 135.95 1450.97 135.95 1450.97 460.13 -60.83 460.13 -60.83 135.95"/>
    </clipPath>
    <linearGradient id="linear-gradient" x1="-1054.74" y1="-978.24" x2="-1053.74" y2="-978.24" gradientTransform="translate(-440214.4416 -474855.227) rotate(-90) scale(450.7196 -450.7196)" gradientUnits="userSpaceOnUse">
      <stop offset="0" stop-color="#852211"/>
      <stop offset=".55" stop-color="#852211"/>
      <stop offset=".85" stop-color="#ea5b22"/>
      <stop offset="1" stop-color="#ea5b22"/>
    </linearGradient>
    <linearGradient id="linear-gradient1" x1="284.89" y1="510.93" x2="284.89" y2="103.34" gradientUnits="userSpaceOnUse">
      <stop offset=".27" stop-color="#010101"/>
      <stop offset="1" stop-color="#fff"/>
    </linearGradient>
    <mask id="mask" x="45.31" y="195.51" width="479.15" height="407.59" maskUnits="userSpaceOnUse">
      <rect class="st3" x="45.31" y="195.51" width="479.15" height="407.59"/>
    </mask>
    <linearGradient id="linear-gradient2" x1="1196.89" y1="490.93" x2="1196.89" y2="83.34" xlink:href="#linear-gradient1"/>
    <mask id="mask-1" x="957.31" y="175.51" width="479.15" height="407.59" maskUnits="userSpaceOnUse">
      <rect class="st2" x="957.31" y="175.51" width="479.15" height="407.59"/>
    </mask>
  </defs>
  <path class="st20" d="M1042.66,377.98l28.79-1.94c13.99,55.13,63.99,79,94.08,84,29.91,2,39.91.49,61.4-4,75.51-23,73.18-99,73.18-99l23.54-.61c-19.02-201.37-170.68-141.52-170.68-141.52-96.09,7.77-110.32,163.07-110.32,163.07"/>
  <path class="st20" d="M123.28,399.38l35.04,3.92c38.36,81.1,89.36,77.48,127.32,76.24,64.04-9.2,78.93-36.5,93.89-83.49l24.75.99c.17-201.01-294.83-199.01-266.83,2.34"/>
  <g>
    <path class="st24" d="M1390.95,281.65v-16.22l-4.06-55.96s-10.54,2.43-17.84-15.41l-10.54-56.77-44.61-39.74s-64.07-42.99-85.16-54.34l-7.3-16.22,16.22-11.35-97.33-8.92c-211.73-10.16-416.59-12.24-510.11,19.06,0,0-39.78-.41-187.39,85.92l-44.61,26.81-33.66,2.84-3.96-1.84-179.74,31.85c-1.93.8-168.6,24.15-166.27,135.45l-4.06,4.06,2.43,32.44-4.05,11.35,1.62,30.01-10.54,11.36,76.24,13.79,26.76,4.05h38.93s-9.09-29.17-2.6-69.73c0,0,18.82-71.8,77.63-86.4,0,0,180.46-50.69,182.89,146.39l4.05,9.73,34.88-7.3,601.8-16.22,10.54-8.11s-1.62-34.88,6.49-61.64c25.95-90.03,103.63-93.56,138.69-92.46,0,0,102.19-8.11,116.79,138.69l60.02-11.35s42.17-42.99,17.84-73.81"/>
    <g class="st25">
      <g class="st16">
        <path class="st12" d="M1358.71,138.37c-267.93,7.01-1034.51,26.92-1151.71,28.34l-26.14,4.63s-3.08.61-8.47,1.48c-31.13,5-77.57,24.92-110.66,45.66-28.31,17.75-47.13,48.42-47.13,87.49,0,.27,0,.55,0,.82h0l-4.06,4.06,2.43,32.44-4.05,11.35,1.62,30.01-10.54,11.36,76.24,13.79,26.76,4.05h38.93s-4.94-15.86-4.94-40.45c0-8.76.63-18.63,2.34-29.28,0,0,18.82-71.8,77.63-86.4,0,0,20.82-5.85,48.41-5.85,53.64,0,132.87,22.1,134.48,152.24l4.05,9.73,34.88-7.3,601.8-16.22,10.54-8.11s-.13-2.86-.13-7.56c0-11.74.83-34.97,6.62-54.08,24.07-83.49,92.62-92.6,130.42-92.6,2.96,0,5.73.06,8.27.14,0,0,1.01-.08,2.85-.08,16.62,0,100.8,6.57,113.94,138.77l60.02-11.35s25.42-25.91,25.4-51.92c0-7.49-2.12-14.99-7.56-21.89v-16.22l-4.06-55.96s-.48.11-1.32.11c-3.05,0-10.79-1.5-16.53-15.52l-10.34-55.68"/>
      </g>
      <g class="st1">
        <ellipse class="st9" cx="268.95" cy="387.03" rx="165.5" ry="165"/>
      </g>
      <g class="st15">
        <ellipse class="st9" cx="1180.95" cy="367.03" rx="165.5" ry="165"/>
      </g>
    </g>
  </g>
  <ellipse class="st7" cx="266.84" cy="367.11" rx="114.76" ry="110"/>
  <path class="st8" d="M264,268.67c-58.46,0-105.84,45.57-105.84,101.79s47.39,101.79,105.84,101.79,105.84-45.57,105.84-101.79-47.39-101.79-105.84-101.79ZM266.35,469.41c-54.24,0-98.22-43.97-98.22-98.22s43.97-98.22,98.22-98.22,98.22,43.97,98.22,98.22-43.97,98.22-98.22,98.22Z"/>
  <path class="st19" d="M49.01,229.28c41.36-20.28,118.07-19,118.07-19l2.43,4.06c-25.13,19.88-47.65,46.32-69.75,73.81l-56.77,9.73-9.73-5.68,45.42-11.35,9.73-15.41-55.15,6.49-8.2-10.99,23.96-31.65Z"/>
  <path class="st13" d="M55.96,232.99c16.63-5.68,82.73-16.63,82.73-16.63h13.38c-19.87,15.82-52.72,65.7-52.72,65.7l-5.12,7.03-54.9,8.79-8.52-6.49,47.04-13.79,5.56-11.58-50.16,5.9-8.2-8.92,30.91-30.01Z"/>
  <path class="st19" d="M21.9,327.88c19.47.81,35.28,8.11,35.28,8.11,32.44,19.47,46.64,59.21,46.64,59.21l-11.35,2.84-60.83-4.06s-6.49-8.52-4.06-8.52,4.46-1.22,4.46-1.22l-13.79-56.37h3.65Z"/>
  <path class="st18" d="M265.26,277.51c-51.49,0-93.23,41.74-93.23,93.23s41.74,93.23,93.23,93.23,93.23-41.74,93.23-93.23-41.74-93.23-93.23-93.23ZM265.26,447c-8.22,0-16.14-1.31-23.56-3.71-.85-.75-1.71-1.53-2.56-2.37l20.27-20.8,6.26.2,19.97,21.99c-1.07.99-2.15,1.9-3.22,2.75-5.52,1.27-11.26,1.94-17.17,1.94ZM196.68,337.36l31.63,5.12,17.47,16.89c-1.29,2.38-2.18,5.01-2.56,7.8l-17.9,5.42s-21.79-9.26-35.38-13.79c1.19-7.58,3.5-14.79,6.75-21.45ZM235.33,300.58c.89.02,1.79.06,2.71.13l-2.03,27.17-4.87,3.65-28.99-3.62c8.17-12,19.67-21.55,33.17-27.32ZM321.95,418.69l-11.9-26.49,2.48-5.75,27.78-10.5c.3.78.57,1.54.83,2.3-1.4,14.31-6.75,27.46-14.95,38.34-1.34.73-2.75,1.43-4.25,2.1ZM308.88,369.59l-21.34-7.35c-.58-1.54-1.32-3-2.2-4.36l12.11-11.28s24.92-1.35,38.95-3.35c1.97,5.1,3.42,10.47,4.25,16.04l-31.78,10.3ZM331.78,333.44l-28.51,3.4-4.75-4.09-1.72-29.65c1.19-.08,2.34-.11,3.46-.12,13.24,6.86,24.22,17.48,31.51,30.46ZM198.53,407.69c-6.07-10.95-9.54-23.54-9.54-36.95,0-.44,0-.89.02-1.33l26.78,9.38,2.46,5.76-11.51,27.38c-3.07-1.26-5.8-2.68-8.21-4.25ZM232.99,393.5l15.6-8.12c2.99,3.46,6.99,6.03,11.55,7.22l-2.32,16.26s-20.41,18.39-29.56,28.56c-4.35-2.42-8.44-5.25-12.22-8.45l16.95-35.48ZM280,410.74l-.95-21.43c2.75-1.9,5.06-4.37,6.77-7.26l13.17,7.5s10.09,27.02,16.16,38.86c-4.01,3.47-8.39,6.53-13.06,9.11l-22.09-26.79ZM281,296.11l.36,35.09-12.07,16.38c-1.07-.15-2.17-.24-3.28-.24-2.65,0-5.2.45-7.57,1.28l-12.28-17.5s3.48-22.88,4.02-35.14c4.88-.98,9.92-1.49,15.08-1.49s10.66.56,15.74,1.63Z"/>
  <path class="st22" d="M393.36,164.05c-5.68,0,12.17,1.62,17.03,6.49,4.87,4.87,86.78.27,86.78.27,49.47.54,288.73-31.09,288.73-31.09l200.33-15.41,152.72-35.69c-41.51-60.59-129.19-71.37-129.19-71.37h-268.3c-138.78,12.67-246.72,81.11-246.72,81.11l-37.31,24.33-64.07,41.36Z"/>
  <polygon class="st5" points="830.92 17.25 830.92 56.18 821.59 132.59 829.6 132.11 835.38 55.37 830.92 17.25"/>
  <polygon class="st7" points="387.68 132.42 360.6 139.49 373.08 137.28 387.68 132.42"/>
  <polygon class="st7" points="446.18 373.67 787.94 361.94 794.46 361.94 798.89 367.11 452.57 375.95 445.73 382.05 446.18 373.67"/>
  <path class="st21" d="M398.23,138.5l44.61-26.81c136.26-69.7,195.42-84.5,195.42-84.5-81.25,13.84-133.94,28.47-250.57,105.23l-14.6,4.87-12.48,2.21,3.96,1.84,33.66-2.84Z"/>
  <ellipse class="st7" cx="1187.38" cy="347.31" rx="114.76" ry="110"/>
  <path class="st8" d="M1184.54,248.86c-58.46,0-105.84,45.57-105.84,101.79s47.39,101.79,105.84,101.79,105.84-45.57,105.84-101.79-47.39-101.79-105.84-101.79ZM1186.9,449.6c-54.24,0-98.22-43.97-98.22-98.21s43.97-98.22,98.22-98.22,98.22,43.97,98.22,98.22-43.97,98.21-98.22,98.21Z"/>
  <polygon class="st11" points="781.04 19.68 783.25 27.81 783.25 41.58 763.2 139.49 823.62 135.95 832.14 51.1 829.98 17.25 780.23 17.25 781.04 19.68"/>
  <path class="st7" d="M482.27,102.15c3.22,4.8,2.76,26.62,2.76,26.62,25.59-25.94,72.84-12.45,76.21-7.7,21.9,17.84-49.47,31.36-49.47,31.36l-26.74,2.97v8.61l-49.63,7.34c-1.91,6.48-43.95-2.69-42.04-9.17l88.91-60.03Z"/>
  <polygon class="st7" points="441.5 171.67 427.79 200.64 428.24 285.16 428.24 316.06 446.89 375.95 444.73 387.36 422.96 317.2 423.22 282.88 423.64 195.95 435.26 171.35 441.5 171.67"/>
  <polygon class="st7" points="789.15 137.48 776.99 197.3 783.07 311.05 785.37 350.86 785.91 367.11 796.72 367.62 793.21 311.05 787.94 198.11 798.89 136.55 789.15 137.48"/>
  <path class="st18" d="M1093.95,359.28c10.34,50.44,52.29,89.15,103.27,81.97,81.22-11.44,80.19-70.2,81.97-103.27.29-25.34-41.12-94.04-113.81-77.41-23.41,6.08-84.29,35.93-71.43,98.71ZM1262.33,339.91c.94,8.17.55,16.18-1,23.82-.65.93-1.33,1.87-2.06,2.81l-22.98-17.76-.52-6.24,19.56-22.35c1.11.95,2.14,1.92,3.1,2.88,1.89,5.34,3.21,10.97,3.89,16.83ZM1161.24,420.57l1.47-32.01,14.79-19.28c2.51,1.01,5.23,1.59,8.05,1.65l7.43,17.17s-6.71,22.71-9.66,36.73c-7.67-.32-15.09-1.79-22.08-4.25ZM1120.29,386.37c-.08-.89-.14-1.79-.18-2.71l27.22-1.09,4.18,4.42-.29,29.21c-12.86-6.74-23.66-17.07-30.93-29.83ZM1227.72,286.82l-24.96,14.85-6-1.81-13.6-26.4c.74-.39,1.47-.74,2.19-1.09,14.38-.25,28.05,3.57,39.8,10.47.88,1.25,1.74,2.57,2.57,3.98ZM1180.44,305.42l-4.87,22.04c-1.46.75-2.83,1.66-4.08,2.69l-12.59-10.74s-4.19-24.6-7.78-38.32c4.85-2.54,10.01-4.59,15.45-6.06l13.87,30.39ZM1141.91,286.8l6.64,27.93-3.52,5.18-29.26,5.09c-.21-1.17-.38-2.31-.52-3.43,5.3-13.94,14.6-26.06,26.66-34.78ZM1230.9,410.69c-10.18,7.28-22.3,12.16-35.61,13.7-.44.05-.88.09-1.32.13l6.26-27.67,5.44-3.1,28.52,8.31c-.9,3.19-2,6.07-3.28,8.64ZM1212.87,378.08l-9.84-14.57c3.1-3.37,5.19-7.63,5.86-12.3l16.42.45s20.6,18.17,31.75,26.1c-1.91,4.6-4.25,8.99-7,13.1l-37.19-12.78ZM1224.62,329.4l-21.18,3.39c-2.2-2.51-4.92-4.53-7.98-5.89l5.95-13.94s25.69-13.11,36.76-20.49c3.91,3.59,7.44,7.58,10.54,11.93l-24.09,25ZM1110.63,341.51l34.82-4.36,17.65,10.12c-.03,1.08.01,2.18.14,3.29.3,2.63,1.04,5.11,2.14,7.37l-15.98,14.2s-23.13-.84-35.37.02c-1.53-4.73-2.62-9.68-3.21-14.81-.62-5.36-.66-10.66-.18-15.82Z"/>
  <path class="st4" d="M1299.15,263.65c-46.48-59.86-137.91-83.89-205.82-24.58-4.61.92-42.75,46.48-42.75,46.48l-34.33,42.74-26.06,31.74c0-.18-552.07,15.2-570.73,15.9-20.12-71.71-29.33-78.05-29.33-78.05-68.67-100.84-200.67-82.84-254.67,18.25,112.31-157.98,250.56-21.28,251.22-13.99,20.68,45.01,23.78,90.23,23.78,90.23l42.12-9.79,324.42-11.7,216.14-6.74c7.79-.41,55.02-65.98,64.49-75.31,0,0,47.99-58.19,79.48-68.14,49.84-15.75,76.97-3.1,76.97-3.1,55.23,12.66,88.66,50.14,102.68,110.3l6.25,26.59c2.81,4.57,5.14,5.3,6.97,1.95-6.65-33.62-16.33-64.98-30.82-92.77Z"/>
  <path class="st6" d="M1228.2,48.47c2.03,1.62,24.74,36.4,24.74,36.4l54.75,7.39-78.94-49.07-.54,5.27Z"/>
  <polygon class="st23" points="1262.83 144.99 1282.27 138.5 1353.08 132.44 1358.51 137.28 1366.89 182.4 1296.47 177.02 1262.83 144.99"/>
  <polygon class="st14" points="1262.83 144.99 1282.27 138.5 1326.94 134.68 1332.15 144.99 1311.47 154.31 1288.18 169.13 1262.83 144.99"/>
  <path class="st17" d="M686.37,200.5l67.26-11.45c.3-.05.55.23.47.52l-3.4,12.08c-.05.16-.18.28-.35.3l-71.85,8.83c-.25.03-.47-.16-.47-.41,0-4.88,3.52-9.05,8.33-9.87Z"/>
  <path class="st17" d="M1004.87,173.35l67.26-11.45c.3-.05.55.23.47.52l-3.4,12.08c-.05.16-.18.28-.35.3l-71.85,8.83c-.25.03-.47-.16-.47-.41,0-4.88,3.52-9.05,8.33-9.87Z"/>
  <path class="st7" d="M1137.09,84.87l-7.33,2.56,7.69,14.56-3,12.98c-53,95.23-99.16,183.42-149.04,238.84-66.2,4.74-160.73,3.44-191.96,6.96-7.58.85-3.82,1.99-3.82,3.57l200.56-4.32c67.03-77.17,110.54-160.01,155.02-242.62v-15l-8.11-17.53Z"/>
  <polygon class="st10" points="169.51 210.79 191.81 196.49 356.86 169.04 389.3 141.34 389.3 139.25 398.23 138.5 358.48 174.64 195.46 199.92 169.51 214.33 158.15 216.36 163.43 210.79 169.51 210.79"/>
  <polygon class="st19" points="98.95 294.48 90.84 302.98 18.25 311.66 21.09 308.01 82.32 300.58 85.16 294.48 85.57 291.38 99.76 288.14 98.95 294.48"/>
  <path class="st19" d="M1366.89,199.73h-69.4l-7.11,6.85,20.68,18.02c15.82,15.27,21.09,47.75,21.09,47.75.41-32.48-27.98-61.68-27.98-61.68l1.22-4.1,58.8-.08,22.71,2.96c-8.92-2.43-15.04-9.73-15.04-9.73h-4.96Z"/>
  <polygon class="st11" points="991.1 27.19 980.56 119.03 991.1 116.73 996.54 21.3 991.92 21.3 991.1 27.19"/>
  <path class="st11" d="M478.05,104.91l6.79,8.04c0,2.43,100.18-65.81,224.82-85.76l282.25-5.89h21.09c72.18,10.54,116.76,66.14,116.76,66.14l7.33-2.56c-42.17-51.41-118.41-67.63-118.41-67.63h-292.79c-113.77,10.1-247.84,87.66-247.84,87.66Z"/>
  <path class="st5" d="M1138.95,88.62l-1.86-3.74-156.53,34.16-163.03,12.98h0s-4.03.32-4.03.32h-.03s-46.22,3.73-46.22,3.73l13.38-66.91,5.27-25.55-3.46-16.57-1,16.98-19.87,90.03-210.06,23.12-57.99,6.08-40.15,3.65h-32.04s-6.32,4.68,19.06,5.88l99.31-4.42,239.96-27.82,30.65-2.7.02-.02,173.47-10.27,155.15-38.93Z"/>
</svg>