<?xml version="1.0" encoding="UTF-8"?>
<svg id="Ebene_1" xmlns="http://www.w3.org/2000/svg" xmlns:xlink="http://www.w3.org/1999/xlink" version="1.1" viewBox="0 0 1756 685.15">
  <!-- Generator: Adobe Illustrator 30.4.0, SVG Export Plug-In . SVG Version: 2.1.4 Build 226)  -->
  <defs>
    <style>
      .st0 {
        fill: none;
      }

      .st1 {
        mask: url(#mask);
      }

      .st2 {
        fill: #a5a4a3;
      }

      .st3 {
        fill: #191212;
      }

      .st3, .st4, .st5, .st6, .st7, .st8, .st9 {
        stroke: #010101;
        stroke-miterlimit: 10;
      }

      .st10 {
        fill: #e84344;
      }

      .st11 {
        fill: #454545;
      }

      .st4, .st12 {
        fill: #101616;
      }

      .st13 {
        fill: url(#linear-gradient);
      }

      .st14 {
        fill: #202121;
      }

      .st5 {
        fill: #100c0d;
        stroke-width: 2px;
      }

      .st15 {
        fill: #141313;
      }

      .st16 {
        fill: #0c0708;
      }

      .st6 {
        fill: #9c9b9a;
      }

      .st17, .st7 {
        fill: #383938;
      }

      .st18 {
        fill: #c6bebe;
      }

      .st8 {
        fill: #1d1d1d;
      }

      .st9 {
        fill: #010101;
      }

      .st19 {
        fill: #716e6e;
      }

      .st20 {
        fill: #161112;
      }

      .st21 {
        fill: #e4e1e1;
      }
    </style>
    <linearGradient id="linear-gradient" x1="2479.49" y1="699.12" x2="2479.49" y2="176.12" gradientTransform="translate(-1617.995 875.2472) scale(1 -1)" gradientUnits="userSpaceOnUse">
      <stop offset=".39" stop-color="#fff"/>
      <stop offset=".8" stop-color="#010101"/>
    </linearGradient>
    <mask id="mask" x="-47" y="176.12" width="1817" height="523" maskUnits="userSpaceOnUse">
      <rect class="st13" x="-47" y="176.12" width="1817" height="523" transform="translate(1723 875.2472) rotate(-180)"/>
    </mask>
  </defs>
  <path class="st12" d="M610,572.12l-35,1-329-28,19-129,59-60,68-34h127s75,76,75,76c29.06,33.45,41.79,74.42,38,123l-22,51Z"/>
  <path class="st7" d="M1738.4,355.62c-26.15-125-172.99-137-172.99-137l-244.12-8.8-164.71-102.2c-45.14-33.97-92.02-67-140.3-94.5-48.27-27.5-527-1.5-527-1.5l-216.23,9-78.45,13.5-66.38,9.5-44.25,32,34.19,26-77.44,120c-36.21,71,0,95,0,95l-16.09,49-13.07,22v74s18.1,41,18.1,41l13.07,22,44.25-8,129.74,42h58.33c-69.37-211.79,130.04-219.98,151.86-222,237.35,5,193.1,218,193.1,218l-5.03,22,741.22-18c22.13-283,223.27-192,223.27-192,81.01,21,80.01,192,80.01,192l58.79-3c45.76-45.5,6.03-179,6.03-179l14.08-21Z"/>
  <path class="st19" d="M1261.99,213.72l13.39-6.95L1011.47,42.63c-222.79-19.98-430.82,3.49-707.11,16.07l-90.36,122.02,13.39,19.11,726.71,20.84h300.25s3.82-4.34,3.82-4.34l3.82-2.61Z"/>
  <polygon class="st5" points="843 29.92 882 136.74 902 223.12 833 223.12 804 27.12 843 29.92"/>
  <polygon class="st5" points="560 39.7 540 153.82 540 174.56 555 219.7 490 219.7 529 41.64 560 39.7"/>
  <path class="st18" d="M227.39,197.87l1024.09,22.3,16.13-13.84-255.18-163.7c-68.03-14.04-442.75,10.16-709.96,20.96l6.2-8.47c266.8-11.07,653.15-37.51,701.85-20.52l264.87,166.83-.97.61,11.48,11.88-20.25,12.85-1038.26-18.2-8.61-10.71h8.61Z"/>
  <polygon class="st4" points="1288.5 228.12 1288.5 298.97 1262.5 533.56 1257.5 555.62 1283.5 290.84 1282.5 228.12 1288.5 228.12"/>
  <polygon class="st16" points="234.25 93.1 149.62 208.12 61 214.12 144.28 86.12 253 67.62 234.95 86.12 234.25 93.1"/>
  <polygon class="st4" points="884.5 225.12 901.5 387.3 892.5 563.62 892.5 387.3 878.5 225.12 884.5 225.12"/>
  <path class="st12" d="M509.5,228.61l5,88.26c91,35.64-16-6.79-16-6.79h7s-5-89.96-5-89.96h15s-6,8.49-6,8.49Z"/>
  <polygon class="st18" points="261.77 57.3 162 71.12 144 71.12 96.69 57.3 116 40.12 262 48.12 261.77 57.3"/>
  <polygon class="st16" points="220.49 288.12 156.93 237.12 132.1 226.12 55.62 231.12 33.22 237.12 26.87 257.12 24.37 280.05 27.74 298.54 220.49 298.12 220.49 288.12"/>
  <polygon class="st2" points="122.17 237.12 141.04 252.12 177.79 288.12 166.16 298.24 24.83 298.12 24.83 286.14 24.83 257.12 29.51 247.07 122.17 237.12"/>
  <polygon class="st10" points="111 252.12 40 262.12 40 273.12 135 268.12 111 252.12"/>
  <path class="st10" d="M632,499.12h5s-5,0-5,0Z"/>
  <g class="st1">
    <g>
      <path class="st20" d="M453.09,330.92c2.27.05,3.51.2,3.51.2,0,0-1.31-.07-3.51-.2Z"/>
      <path class="st20" d="M43.25,397.12l39.22-12,187.07,23,12.07-23s35.2-58,90-70.68c0,0,162.44-58.32,254.96,63.68,21.96,34.8,55.32,55.5,106.61,54l183.4,8.01,419.03,20.99s.55-1.18,1.56-3.26c6.11-12.56,21.57-144.74,174.44-156.74,128.73-5,172.19,56.24,199.13,149h5.03s35.2,11,35.2,11l5.03,70-16.09,24-25.14,8h-42.24s-5.03,0-5.03,0h-10.06c-20.19-236.87-159.61-181.87-181.03-195-111.41,18-121.13,140.44-100.57,160v27s-107.61,0-107.61,0l-22.13,22-565.15,5.29.19.71h-75.69s52.3-237-147.34-245.5c-128.83,7.65-215.94,44.05-182.54,217.5l-52.3,8-129.74-38-68.39-7L0,473.12v-76h43.25Z"/>
    </g>
  </g>
  <path class="st9" d="M1345.7,516.12c0,90.85,69.13,164.49,154.4,164.49,85.27,0,147.45-73.91,154.4-164.49,7.92-103.11-60.2-178.11-154.4-164.49-94.86,0-154.4,73.65-154.4,164.49Z"/>
  <ellipse class="st3" cx="1500" cy="517.62" rx="117.5" ry="119"/>
  <path class="st0" d="M1563.17,440.07c2.61,2.29,5.11,4.71,7.48,7.26l-42.73,39.88,35.24-47.14Z"/>
  <path class="st0" d="M1509.2,493.27l9.58-75.57c13.42,2.86,25.86,8.5,36.74,16.3l-43.16,60.69c-1.02-.54-2.07-1.01-3.16-1.41Z"/>
  <path class="st0" d="M1498.76,415.57c3.67.01,7.29.23,10.86.64l-7.41,60.61-3.44-61.25Z"/>
  <path class="st0" d="M1462.78,422.33c8.26-3.25,17.03-5.41,26.17-6.3l6.09,76.06s-.04,0-.05,0l-32.21-69.77Z"/>
  <path class="st0" d="M1597.63,504.32c.67,4.85,1.03,9.8,1.03,14.84,0,3.57-.17,7.1-.52,10.58l-71.61-11.88,71.1-13.53Z"/>
  <path class="st0" d="M1576.65,454.39c5.19,6.69,9.6,14.06,13.07,21.96l-66.83,27.79,53.76-49.75Z"/>
  <path class="st0" d="M1596.74,539.37c-.65,3.41-1.47,6.77-2.44,10.05l-54.53-20.9,56.97,10.85Z"/>
  <path class="st0" d="M1474.34,511.47l-75.66-1.61c.79-9.18,2.73-18.01,5.69-26.35l70.11,27.5c-.04.15-.09.3-.13.46Z"/>
  <path class="st0" d="M1408.08,474.41c1.55-3.33,3.26-6.56,5.13-9.68l51.76,33.58-56.9-23.9Z"/>
  <path class="st0" d="M1482,498.69l-63.67-41.7c5.33-7.33,11.57-13.9,18.55-19.54l45.31,61.06c-.06.06-.13.12-.19.18Z"/>
  <path class="st0" d="M1444.81,431.66c3.06-2.01,6.24-3.85,9.51-5.52l26.18,56.08-35.69-50.57Z"/>
  <path class="st0" d="M1593.22,485.42c1.06,3.2,1.98,6.47,2.74,9.8l-56.19,10.95,53.44-20.75Z"/>
  <path class="st0" d="M1474.89,526.59l-65.89,39.25c-3.96-8.09-6.92-16.8-8.71-25.94l74.41-13.9c.06.2.13.39.2.59Z"/>
  <path class="st0" d="M1419.83,583.36c-2.29-2.99-4.42-6.13-6.38-9.37l54.53-32.8-48.15,42.17Z"/>
  <path class="st0" d="M1483.68,538.99l-35.8,69.6c-8-4.85-15.29-10.81-21.67-17.68l56.96-52.34c.17.14.34.27.52.41Z"/>
  <path class="st0" d="M1466.74,617.46c-3.67-1.27-7.24-2.75-10.71-4.42l29.56-58.08-18.85,62.51Z"/>
  <path class="st0" d="M1460.33,520.18l-61.49,9.98c-.37-3.61-.56-7.28-.56-10.99,0-.01,0-.03,0-.04l62.05,1.05Z"/>
  <path class="st0" d="M1522.81,531.6l68.48,26.59c-3.24,8.24-7.48,15.95-12.56,22.98l-56.01-49.42s.06-.1.09-.15Z"/>
  <path class="st0" d="M1513.49,621.6l-5.66-64.32,16.83,61.89c-3.65,1.02-7.38,1.84-11.18,2.43Z"/>
  <path class="st0" d="M1512.28,541.6l45.59,60.99c-7.26,5.53-15.26,10.08-23.83,13.44l-22.11-74.25c.12-.06.23-.12.35-.18Z"/>
  <path class="st0" d="M1572.61,588.84c-2.4,2.73-4.95,5.33-7.62,7.78l-37.06-49.14,44.69,41.35Z"/>
  <path class="st0" d="M1497.72,544.52l6.53,78.07c-1.92.11-3.84.18-5.79.18-7.63,0-15.06-.89-22.2-2.56l20.89-75.74c.19.02.38.03.57.05Z"/>
  <circle class="st21" cx="1501.5" cy="517.62" r="13.5"/>
  <path class="st21" d="M1381.58,512.65c-.03,1.09-.04,2.18-.04,3.28,0,8.65.83,17.1,2.42,25.27l.12,1.5.17-.03c2.39,11.58,6.29,22.58,11.49,32.75l-.28.17,1.33,1.83c20.77,38.96,60.67,65.33,106.48,65.33,25.7,0,49.54-8.31,69.19-22.47l.12.17,1.06-1.02c8.5-6.28,16.19-13.68,22.88-21.98l1.25-1.2-.17-.15c7.03-8.96,12.9-18.95,17.38-29.71l.88.35,2.27-8.7c1.94-5.73,3.49-11.66,4.63-17.73l2.05-7.87-.8-.14c.66-5.35,1.01-10.81,1.01-16.36,0-6.18-.43-12.25-1.25-18.19l1.25-.25-2.81-9.54-.16.03c-1.18-5.49-2.71-10.84-4.55-16.03l-2.49-8.45-.71.31c-4.62-10.65-10.61-20.52-17.74-29.36l.7-.67-5.55-5c-5.61-6.17-11.81-11.76-18.5-16.66l-1.87-1.69-.16.23c-13.85-9.71-29.71-16.53-46.81-19.64l.04-.29-1.96-.04c-6.24-1.03-12.64-1.57-19.16-1.57-16.29,0-31.83,3.34-46.03,9.39l-.09-.2-1.25.77c-20.69,9.11-38.46,24.02-51.43,42.77l-.45-.31-1.87,3.78c-5.17,8.02-9.48,16.7-12.81,25.87l-.98,1.98.25.1c-3.69,10.75-6.02,22.17-6.78,34.03l-.69-.02.45,5.36ZM1404.51,479.73l72.02,29.19c-.04.16-.09.32-.13.48l-77.73-1.71c.81-9.74,2.81-19.12,5.84-27.96ZM1466.78,495.43l-58.45-25.36c1.59-3.54,3.35-6.96,5.27-10.28l53.18,35.64ZM1437.91,430.85l46.55,64.79c-.07.06-.13.13-.19.19l-65.41-44.25c5.47-7.77,11.88-14.75,19.06-20.73ZM1503.78,494.71c11.63,0,21.06,9.74,21.06,21.75,0,12.01-9.43,21.75-21.06,21.75-11.63,0-21.06-9.74-21.06-21.75,0-12.01,9.43-21.75,21.06-21.75ZM1482.73,478.37l-36.67-53.66c3.14-2.13,6.41-4.09,9.77-5.85l26.9,59.51ZM1497.66,488.84s-.04,0-.05.01l-33.08-74.04c8.48-3.45,17.5-5.74,26.88-6.69l6.26,80.72ZM1512.63,408.31l-7.62,64.32-3.54-64.99c3.77.01,7.49.24,11.15.68ZM1559.78,427.19l-44.34,64.4c-1.04-.57-2.12-1.07-3.24-1.5l9.84-80.19c13.79,3.03,26.57,9.02,37.74,17.3ZM1575.33,441.33l-43.89,42.32,36.2-50.02c2.68,2.43,5.25,5,7.69,7.7ZM1594.93,472.13l-68.66,29.49,55.23-52.79c5.33,7.1,9.86,14.92,13.43,23.3ZM1601.33,492.15l-57.72,11.62,54.9-22.02c1.09,3.39,2.04,6.86,2.82,10.4ZM1603.57,528.79l-73.56-12.61,73.04-14.36c.69,5.14,1.06,10.4,1.06,15.75,0,3.79-.18,7.53-.53,11.22ZM1543.61,527.5l58.52,11.51c-.67,3.62-1.51,7.18-2.5,10.67l-56.02-22.18ZM1583.64,583.36l-57.54-52.44c.03-.05.06-.11.09-.16l70.35,28.22c-3.33,8.74-7.68,16.93-12.9,24.38ZM1569.52,599.76l-38.07-52.14,45.9,43.88c-2.47,2.9-5.09,5.65-7.83,8.26ZM1537.72,620.36l-22.71-78.79c.12-.06.24-.13.36-.19l46.83,64.72c-7.46,5.87-15.68,10.7-24.48,14.27ZM1510.8,558.02l17.29,65.67c-3.75,1.08-7.58,1.95-11.48,2.58l-5.81-68.25ZM1478.37,624.79l21.46-80.37c.19.02.39.04.59.05l6.7,82.84c-1.97.12-3.95.19-5.94.19-7.84,0-15.47-.94-22.81-2.71ZM1457.59,617.18l30.37-61.63-19.37,66.33c-3.77-1.34-7.44-2.91-11-4.7ZM1426.95,593.71l58.51-55.54c.17.15.35.29.53.43l-36.78,73.86c-8.21-5.14-15.7-11.47-22.26-18.76ZM1413.84,575.74l56.02-34.81-49.46,44.75c-2.35-3.18-4.54-6.5-6.56-9.95ZM1400.32,539.56l76.44-14.75c.06.21.14.42.2.63l-67.69,41.65c-4.06-8.59-7.11-17.82-8.95-27.52ZM1398.26,517.56s0-.03,0-.04l63.75,1.12-63.17,10.59c-.38-3.83-.58-7.72-.58-11.66Z"/>
  <ellipse class="st9" cx="443.25" cy="520.15" rx="164.25" ry="164.49"/>
  <path class="st21" d="M323.89,514.19c-.03,1.08-.04,2.17-.04,3.26,0,8.62.85,17.04,2.47,25.17l.13,1.49.18-.03c2.43,11.54,6.41,22.49,11.71,32.62l-.29.17,1.36,1.82c21.17,38.81,61.84,65.08,108.53,65.08,26.2,0,50.5-8.27,70.52-22.39l.12.17,1.08-1.01c8.67-6.26,16.5-13.63,23.32-21.9l1.27-1.19-.17-.15c7.16-8.93,13.15-18.88,17.72-29.59l.89.35,2.31-8.66c1.97-5.71,3.56-11.61,4.71-17.67l2.09-7.84-.82-.14c.67-5.33,1.02-10.77,1.02-16.29,0-6.15-.44-12.2-1.28-18.12l1.28-.25-2.86-9.51-.16.03c-1.21-5.47-2.76-10.8-4.64-15.97l-2.54-8.41-.73.3c-4.71-10.61-10.81-20.44-18.08-29.25l.72-.67-5.66-4.98c-5.72-6.15-12.03-11.71-18.86-16.59l-1.91-1.68-.16.23c-14.11-9.67-30.29-16.47-47.71-19.57l.04-.29-2-.04c-6.36-1.02-12.88-1.56-19.53-1.56-16.6,0-32.44,3.33-46.92,9.35l-.09-.2-1.27.77c-21.09,9.08-39.2,23.93-52.42,42.61l-.46-.31-1.91,3.76c-5.27,7.99-9.67,16.63-13.05,25.78l-1,1.97.25.1c-3.76,10.71-6.13,22.08-6.91,33.91l-.71-.02.46,5.34ZM347.27,481.38l73.41,29.08c-.04.16-.09.32-.14.48l-79.22-1.71c.83-9.7,2.86-19.04,5.95-27.85ZM410.73,497.03l-59.57-25.26c1.62-3.52,3.42-6.94,5.37-10.24l54.2,35.5ZM381.3,432.69l47.44,64.55c-.07.06-.13.13-.2.19l-66.67-44.08c5.58-7.75,12.11-14.69,19.42-20.65ZM448.45,496.31c11.85,0,21.46,9.7,21.46,21.67,0,11.97-9.61,21.67-21.46,21.67-11.85,0-21.46-9.7-21.46-21.67,0-11.97,9.61-21.67,21.46-21.67ZM426.99,480.03l-37.37-53.46c3.2-2.13,6.53-4.07,9.96-5.83l27.42,59.29ZM442.21,490.46s-.04,0-.06,0l-33.72-73.76c8.64-3.44,17.83-5.72,27.4-6.66l6.38,80.41ZM457.47,410.24l-7.76,64.07-3.6-64.75c3.84.01,7.63.24,11.37.67ZM505.53,429.04l-45.19,64.15c-1.06-.57-2.17-1.07-3.31-1.5l10.03-79.89c14.06,3.02,27.08,8.98,38.47,17.23ZM521.38,443.14l-44.74,42.16,36.9-49.83c2.74,2.42,5.35,4.98,7.84,7.67ZM541.35,473.81l-69.98,29.38,56.29-52.59c5.43,7.07,10.05,14.86,13.68,23.21ZM547.88,493.76l-58.83,11.57,55.96-21.93c1.12,3.38,2.08,6.84,2.87,10.36ZM550.16,530.26l-74.98-12.56,74.44-14.31c.7,5.12,1.08,10.36,1.08,15.69,0,3.77-.18,7.5-.54,11.18ZM489.05,528.97l59.65,11.47c-.68,3.61-1.54,7.16-2.55,10.63l-57.1-22.1ZM529.84,584.63l-58.64-52.24c.03-.05.06-.11.09-.16l71.7,28.11c-3.4,8.71-7.83,16.87-13.15,24.29ZM515.45,600.96l-38.81-51.94,46.79,43.72c-2.52,2.89-5.18,5.63-7.98,8.23ZM483.04,621.48l-23.15-78.49c.12-.06.24-.12.37-.19l47.73,64.47c-7.6,5.85-15.98,10.65-24.95,14.21ZM455.6,559.38l17.63,65.42c-3.82,1.08-7.72,1.94-11.7,2.57l-5.92-67.99ZM422.55,625.89l21.87-80.06c.2.02.4.04.6.05l6.83,82.53c-2.01.12-4.02.19-6.06.19-7.99,0-15.77-.94-23.25-2.7ZM401.37,618.31l30.95-61.4-19.74,66.08c-3.84-1.34-7.58-2.9-11.21-4.68ZM370.13,594.93l59.63-55.32c.18.15.36.29.54.43l-37.49,73.58c-8.37-5.12-16-11.42-22.69-18.68ZM356.77,577.03l57.1-34.67-50.41,44.58c-2.4-3.17-4.63-6.48-6.68-9.91ZM342.99,540.99l77.91-14.69c.06.21.14.42.21.62l-68.99,41.49c-4.14-8.56-7.24-17.76-9.12-27.42ZM340.89,519.08s0-.03,0-.04l64.97,1.11-64.39,10.55c-.39-3.82-.59-7.7-.59-11.62Z"/>
  <path class="st11" d="M1670.51,549.54c7.41-80.05,1.52-152.55-68.61-196.96-59.97-36.38-161.12-21.31-198.73,6.76-47.78,37.42-66.35,105.22-72.17,185.01,4.18-72.98,26.91-136.36,78.27-179.81,40.66-28.06,124.28-38.44,191.1-5.2,60.55,32.4,71.31,107.56,70.14,192.29v-2.08Z"/>
  <path class="st6" d="M528.5,390.62c-135-135-345,69-212,223-123-210,109-321,212-223Z"/>
  <path class="st6" d="M1607.5,389.62c-145-127-299,50-258,155-52-145,140-277,258-155Z"/>
  <path class="st15" d="M1275,216.33l-95.23-57.09-.05,17.68-22.63-13.35-59.97-4.45c-29.42,11.13,18.1,31.15,18.1,31.15l61.43,22.54v9.18s91.07,6.12,91.07,6.12l7.28-11.79Z"/>
  <polygon class="st18" points="1668 263.12 1556 252.12 1647 300.12 1660 308.12 1723.57 314.07 1712 288.12 1668 263.12"/>
  <polygon class="st8" points="1539.5 247.62 163.5 228.62 176.5 237.62 1577.35 263.38 1562.2 252.73 1539.5 247.62"/>
  <path class="st17" d="M620.5,554.62c47-286-379-330-368,1,26-337,391-257,368-1Z"/>
  <polygon class="st14" points="959.5 271.62 902.5 271.62 907.5 288.62 967.5 288.62 959.5 271.62"/>
  <polygon class="st14" points="589.5 258.12 532.5 258.12 537.5 275.12 597.5 275.12 589.5 258.12"/>
</svg>