<svg width="899" height="853" viewBox="0 0 899 853" fill="none" xmlns="http://www.w3.org/2000/svg">
<g id="map">
<g id="districts">
<path id="kreis12" d="M574.972 137.358L553.85 148.04L556.476 213.719L547.836 213.342L539.951 226.102L547.836 233.605L533.768 250.722L528.054 260.249L534.161 266.883L558.578 265.09L604.896 316.408L640.802 326.813L644.391 322.865H653.723V317.124L661.978 317.485L674.545 333.278L672.389 346.2L680.343 339.781L694.327 304.363L703.183 305.764L718.568 289.456L708.311 282.468L727.893 273.148L734.962 277.858L747.475 277.342L750.27 264.297L739.505 255.87L746.543 239.601L732.559 233.074L747.944 205.584L629.837 167.965L630.415 106.181L622.329 112.53C622.329 112.53 604.049 104.411 599.798 135.049L574.957 137.358H574.972Z" fill="#D7D7D7" stroke="black" stroke-miterlimit="10"/>
<path id="kreis11" d="M196.856 98.0999L227.927 112.022V123.82L261.955 146.724V163.378H270.286L274.452 156.436L290.423 171.706L347.367 177.955L380.701 196.695L384.867 208.493L393.499 206.577L388.24 194.563L401.007 185.559L449.611 208.485L465.22 221.584L462.964 227.587L482.492 247.482L480.613 256.117L493.757 254.616L499.763 260.242L523.419 242.225L533.93 250.86L547.821 233.598L539.936 226.094L547.821 213.334L556.461 213.711L553.835 148.032L574.957 137.35L567.449 120.026L532.205 99.8162L546.073 74.9885L534.746 24.7713C534.746 24.7713 492.987 24.0171 473.659 7.96302C473.659 7.96302 414.76 40.0866 264.534 0.513184C264.534 0.513184 110.644 31.744 209.546 68.7777L210.701 91.3428C210.701 91.3428 204.98 97.3226 196.849 98.0922L196.856 98.0999Z" fill="#D7D7D7" stroke="black" stroke-miterlimit="10"/>
<path id="kreis10" d="M393.515 206.592C393.515 206.592 404.88 224.593 411.81 224.893V239.639L418.433 246.558C418.433 246.558 423.854 276.049 420.543 290.795L444.029 323.896L442.519 346.769L428.666 357.305L393.515 328.552L321.64 297.799H284.848C284.848 297.799 272.804 291.111 254.747 271.724C254.747 271.724 236.682 261.696 195.208 270.385C195.208 270.385 184.366 266.375 176.404 247.651C168.442 228.926 150.516 231.92 150.516 231.92L136.047 189.691L145.703 166.087C145.703 166.087 121.786 194.871 109.997 169.443C109.997 169.443 95.1352 178.316 105.369 132.417C105.369 132.417 128.955 140.036 170.775 87.8717C170.775 87.8717 183.003 104.842 196.856 98.0921L227.927 112.014V123.813L261.955 146.716V163.371H270.286L274.452 156.429L290.423 171.698L347.367 177.947L380.701 196.687L384.867 208.485L393.499 206.569L393.515 206.592Z" fill="#D7D7D7" stroke="black" stroke-miterlimit="10"/>
<path id="kreis9" d="M275.769 402.404L253.816 426.308L272.897 454.699L260.892 479.065L231.007 501.461H237.298L231.007 515.607V525.827L197.981 541.542L181.694 570.218C181.694 570.218 167.965 553.033 154.944 552.694C141.922 552.355 126.707 556.542 121.47 549.777C116.234 543.012 112.453 539.649 110.574 530.445C110.574 530.445 61.97 500.83 89.1906 493.149C89.1906 493.149 111.776 475.594 111.652 455.592L96.6599 457.701L56.164 428.625L13.9124 425.154L1.17604 410.693C1.17604 410.693 57.2035 414.395 46.323 381.771L63.6872 348.216L82.2064 325.651L93.2025 330.861L85.1017 300.2L116.357 303.671L124.458 289.787L85.094 275.903L89.4062 260.265L98.4002 241.186L150.493 231.928C150.493 231.928 169.613 229.711 176.381 247.659C183.15 265.606 195.185 270.393 195.185 270.393C195.185 270.393 231.916 262.012 254.724 271.732C254.724 271.732 279.057 296.46 284.825 297.806V305.949L268.9 318.817H249.834L260.384 323.681L254.709 330.576L247.078 346.215L284.455 364.093L275.43 375.683L288.321 384.588L281.875 393.715L275.754 395.97V402.412L275.769 402.404Z" fill="#D7D7D7" stroke="black" stroke-miterlimit="10"/>
<path id="kreis8" d="M492.825 521.51L502.335 543.128V570.618L507.186 571.126L519.522 595.485L519.014 606.906L539.135 607.914C539.135 607.914 546.82 608.522 553.596 614.887H561.581C561.581 614.887 579.593 635.574 577.221 652.659C577.221 652.659 585.414 654.375 587.609 656.784L599.683 647.125L619.257 645.063V654.329C619.257 654.329 683.316 631.695 695.49 610.053L693.172 605.536H684.101L680.32 601.38L668.647 599.325L644.806 587.781L640.386 576.375L630.823 568.517H616.847L611.179 559.451H601.354L596.064 554.164H580.57L568.104 546.237L568.858 539.064L549.592 524.711L523.142 512.251L507.649 509.988L504.26 519.593L492.802 521.502L492.825 521.51Z" fill="#D7D7D7" stroke="black" stroke-miterlimit="10"/>
<path id="kreis7" d="M604.904 316.416L587.77 334.779L579.839 347.993L566.995 338.173L557.547 351.01L547.721 352.518L543.563 363.847L518.252 390.283L529.587 407.653C529.587 407.653 522.033 422.668 509.181 426.301L517.875 464.297L509.181 479.781L518.252 488.47L515.611 492.626V500.176L507.679 509.996L523.172 512.259L549.623 524.719L568.889 539.072L568.135 546.245L580.601 554.172H596.094L601.384 559.459H611.21L616.877 568.525H630.854L640.302 576.075L644.837 587.781L669.016 599.487L680.351 601.372L684.132 605.528H693.203L695.521 610.046L726.984 602.857C726.984 602.857 734.176 611.562 756.7 612.585C779.223 613.609 787.948 620.266 787.948 620.266C787.948 620.266 774.703 584.317 824.324 601.318C824.324 601.318 831.454 585.687 881.014 597.285L898.101 586.472L876.209 569.98L881.337 546.683L865.798 538.918L844.037 538.756C844.037 538.756 887.182 458.032 828.651 497.752C828.651 497.752 794.416 482.667 787.154 465.597L755.914 432.981L754.513 413.41L715.349 373.336L731.666 368.68C731.666 368.68 746.143 358.175 703.691 343.052C703.691 343.052 713.493 329.976 693.095 322.049C693.095 322.049 686.558 319.648 689.237 339.796H680.382L672.428 346.215L674.584 333.293L662.017 317.501L653.762 317.139V322.88H644.429L640.841 326.828L604.934 316.423L604.904 316.416Z" fill="#D7D7D7" stroke="black" stroke-miterlimit="10"/>
<path id="kreis6" d="M428.666 357.305C428.666 357.305 469.001 388.767 471.095 407.168H479.05V413.856H486.165L498.716 426.308H509.189C509.189 426.308 521.132 423.215 529.594 407.661L518.26 390.291L543.57 363.855L547.729 352.526L557.554 351.017L567.002 338.18L579.847 348.001L587.778 334.786L604.911 316.423L558.594 265.106L534.176 266.899L528.07 260.265L533.783 250.737L523.442 242.248L499.786 260.265L493.78 254.639L480.636 256.14L482.515 247.505L462.987 227.61L465.243 221.607L449.634 208.508L401.03 185.582L388.263 194.586C388.263 194.586 398.135 220.368 411.81 224.893V239.639L418.433 246.558C418.433 246.558 423.13 280.244 420.543 290.795L444.029 323.896L442.519 346.769L428.666 357.305Z" fill="#D7D7D7" stroke="black" stroke-miterlimit="10"/>
<path id="kreis5" d="M254.716 330.561L456.103 412.679C456.103 412.679 461.47 400.488 457.874 384.58C457.874 384.58 413.851 342.759 393.507 328.552L321.632 297.799H284.84V305.941L268.916 318.809H249.85L260.399 323.673L254.724 330.569L254.716 330.561Z" fill="#D7D7D7" stroke="black" stroke-miterlimit="10"/>
<path id="kreis4" d="M254.716 330.561L247.085 346.2L284.463 364.078L275.438 375.668L288.328 384.572L281.883 393.7L275.761 395.955V402.397H284.463L335.369 436.852L360.827 446.511V451.344L390.473 480.327L408.453 486.631C408.453 486.631 419.703 478.057 422.652 459.063C422.652 459.063 436.197 435.952 449.634 422.576C449.634 422.576 455.325 416.596 456.11 412.671L254.724 330.553L254.716 330.561Z" fill="#D7D7D7" stroke="#1D1E1C" stroke-miterlimit="10"/>
<path id="kreis3" d="M406.644 486.007C406.644 486.007 396.256 501.646 381.302 509.996C366.348 518.346 388.255 598.871 388.255 598.871L383.72 610.446C383.72 610.446 344.641 623.468 344.641 635.035C344.641 646.602 355.252 669.752 355.252 669.752L348.499 678.91L337.402 680.842L331.612 675.539L307.972 676.501L288.336 693.379L274.198 722.794L251.236 688.369L257.604 671.014L196.826 605.643C196.826 605.643 189.626 578.168 181.702 570.21L197.988 541.535L231.015 525.819V515.599L237.306 501.453H231.015L260.9 479.058L272.905 454.692L253.823 426.301L275.777 402.397H284.478L335.377 436.798L360.85 446.518V451.352L390.496 480.335L406.667 486.007H406.644Z" fill="#D7D7D7" stroke="black" stroke-miterlimit="10"/>
<path id="kreis2" d="M414.945 493.534L425.494 485.83L437.66 484.614L449.634 489.07L462.409 512.582C462.409 512.582 448.78 524.649 448.826 527.566C448.872 530.483 449.057 532.192 449.973 536.786L444.483 542.512V558.489L447.009 562.56L444.483 565.277V573.566L447.602 576.129L447.748 585.326C447.748 585.326 442.119 591.398 443.613 598.863L445.522 637.482L440.171 639.745L441.064 649.996L446.416 655.276L451.367 682.558L448.795 686.022L453.107 695.218C453.107 695.218 459.252 697.497 461.408 707.671C463.564 717.845 470.441 723.34 471.834 723.102L478.226 729.128L481.444 741.049L388.425 821.427L284.817 852.088L272.658 828.369L270.34 774.565L274.206 722.794L288.344 693.379L307.98 676.502L331.619 675.54L337.41 680.842L348.506 678.91L355.259 669.752C355.259 669.752 342.115 641.492 345.619 631.741C349.122 621.99 383.727 610.446 383.727 610.446L388.263 598.871C388.263 598.871 365.901 520.132 381.31 509.996C396.718 499.86 403.017 490.802 406.651 486.007L408.461 486.638L414.952 493.534H414.945Z" fill="#D7D7D7" stroke="black" stroke-miterlimit="10"/>
<path id="kreis1" d="M457.882 384.58C457.882 384.58 463.225 409.616 449.627 422.591C436.036 435.567 422.645 459.079 422.645 459.079C422.645 459.079 420.62 476.918 408.446 486.646L414.937 493.542L425.486 485.838L437.653 484.622L449.627 489.078L462.402 512.59L466.052 508.942L474.976 508.134L481.876 502.862L489.584 510.158L492.826 521.51L504.183 519.886L507.672 509.996L515.603 500.176V492.626L518.244 488.47L509.173 479.781L517.867 464.297L509.481 426.208L498.709 426.301L486.157 413.849H479.042V407.161H471.088C471.088 407.161 469.278 396.363 457.874 384.58H457.882Z" fill="#D7D7D7" stroke="black" stroke-miterlimit="10"/>
<path id="zuerichsee" d="M462.556 512.882C462.556 512.882 448.348 525.188 448.641 528.505C448.934 531.822 449.966 536.794 449.966 536.794L444.475 542.52V558.497L447.001 562.568L444.475 565.285V573.574L447.594 576.136L447.74 585.333C447.74 585.333 443.282 590.759 443.428 594.977C443.574 599.194 445.507 637.482 445.507 637.482L440.155 639.745L441.049 649.996L446.4 655.276L451.352 682.558L448.78 686.022L453.092 695.218C453.092 695.218 458.59 697.935 460.523 704.862C462.455 711.788 467.507 723.248 471.819 723.102L478.21 729.128L481.483 740.587L587.624 656.776C587.624 656.776 582.257 652.813 577.39 652.651C577.39 652.651 580.185 635.828 561.974 614.879H554.105C554.105 614.879 544.818 608.529 538.173 608.191C531.527 607.852 518.845 606.89 518.845 606.89L519.345 595.469L507.187 571.111L501.896 570.895V543.405L492.525 521.786L489.33 510.435L481.737 503.139L474.945 508.411L466.152 509.219L462.556 512.867V512.882Z" fill="#1885D2"/>
<path id="limat2" d="M385.945 839.359C385.945 839.359 388.44 818.518 377.56 815.116H359.649L361.689 795.861L351.941 780.453V764.137L366.225 746.236V736.27L346.273 716.783V705.454L356.022 685.745L355.798 669.206L344.464 642.469V631.595C344.464 631.595 348.09 621.174 381.641 610.977L386.192 599.194L376.874 527.374L380.724 508.188C380.724 508.188 398.859 498.144 404.757 485.684C404.757 485.684 413.959 485.715 422.683 459.563C422.683 459.563 433.071 442.54 454.255 412.648C454.255 412.648 460.846 399.226 455.055 382.479" stroke="#1885D2" stroke-width="6" stroke-miterlimit="10"/>
<path id="limat1" d="M146.327 231.458C146.327 231.458 161.697 227.964 178.46 251.707C195.224 275.449 206.636 268.23 206.636 268.23C206.636 268.23 242.958 261.019 255.294 271.724C267.63 282.43 274.383 291.734 274.383 291.734C274.383 291.734 275.153 294.42 284.193 296.221C290.893 297.552 302.127 298.407 320.955 297.314L386.846 323.611L455.063 382.487L462.278 389.937L470.664 407.622L475.554 428.102L473.228 442.062L472.997 508.203" stroke="#1885D2" stroke-width="6" stroke-miterlimit="10"/>
</g>
<g id="pins">
<g id="kreis12_2">
<g id="dorflinde" clip-path="url(#clip0_6136_2)">
<path id="Vector" d="M565.68 182.856V183.14C565.68 186.169 567.393 189.658 570.774 193.508C573.188 196.261 575.575 198.185 575.676 198.265L576.678 199.069L577.678 198.265C577.779 198.185 580.166 196.261 582.58 193.508C585.96 189.658 587.678 186.169 587.678 183.14V182.856C587.68 176.835 582.746 171.935 576.68 171.935C570.615 171.935 565.68 176.835 565.68 182.856ZM584.491 182.854V183.138C584.491 187.178 579.531 192.419 576.684 194.945C575.816 194.173 574.495 192.926 573.177 191.426C570.358 188.213 568.867 185.346 568.867 183.138V182.854C568.867 178.579 572.372 175.103 576.68 175.103C580.988 175.103 584.493 178.579 584.493 182.854H584.491Z" fill="white"/>
<path id="Vector_2" d="M571.896 183.014C571.896 185.632 574.041 187.763 576.678 187.763C579.315 187.763 581.46 185.632 581.46 183.014C581.46 180.396 579.315 178.263 576.678 178.263C574.041 178.263 571.896 180.394 571.896 183.014ZM578.275 183.014C578.275 183.887 577.559 184.596 576.68 184.596C575.801 184.596 575.085 183.887 575.085 183.014C575.085 182.141 575.801 181.431 576.68 181.431C577.559 181.431 578.275 182.141 578.275 183.014Z" fill="white"/>
</g>
</g>
<g id="kreis11_2">
<g id="accu" clip-path="url(#clip1_6136_2)">
<path id="Vector_3" d="M409.68 127.803V128.085C409.68 131.099 411.393 134.571 414.774 138.402C417.188 141.142 419.575 143.056 419.676 143.136L420.678 143.935L421.678 143.136C421.779 143.056 424.166 141.142 426.58 138.402C429.96 134.571 431.678 131.099 431.678 128.085V127.803C431.68 121.811 426.746 116.935 420.68 116.935C414.615 116.935 409.68 121.811 409.68 127.803ZM428.491 127.801V128.083C428.491 132.103 423.531 137.318 420.684 139.832C419.816 139.064 418.495 137.823 417.177 136.331C414.358 133.133 412.867 130.281 412.867 128.083V127.801C412.867 123.546 416.372 120.087 420.68 120.087C424.988 120.087 428.493 123.546 428.493 127.801H428.491Z" fill="white"/>
<path id="Vector_4" d="M415.896 127.96C415.896 130.565 418.041 132.685 420.678 132.685C423.315 132.685 425.46 130.565 425.46 127.96C425.46 125.354 423.315 123.232 420.678 123.232C418.041 123.232 415.896 125.352 415.896 127.96ZM422.275 127.96C422.275 128.828 421.559 129.533 420.68 129.533C419.801 129.533 419.085 128.828 419.085 127.96C419.085 127.091 419.801 126.384 420.68 126.384C421.559 126.384 422.275 127.091 422.275 127.96Z" fill="white"/>
</g>
<g id="centereleven" clip-path="url(#clip2_6136_2)">
<path id="Vector_5" d="M452.68 92.8028V93.0853C452.68 96.0988 454.393 99.5706 457.774 103.402C460.188 106.142 462.575 108.056 462.676 108.136L463.678 108.935L464.678 108.136C464.779 108.056 467.166 106.142 469.58 103.402C472.96 99.5706 474.678 96.0988 474.678 93.0853V92.8028C474.68 86.8114 469.746 81.9354 463.68 81.9354C457.615 81.9354 452.68 86.8114 452.68 92.8028ZM471.491 92.8007V93.0832C471.491 97.1033 466.531 102.318 463.684 104.832C462.816 104.064 461.495 102.823 460.177 101.331C457.358 98.1329 455.867 95.2806 455.867 93.0832V92.8007C455.867 88.5463 459.372 85.087 463.68 85.087C467.988 85.087 471.493 88.5463 471.493 92.8007H471.491Z" fill="white"/>
<path id="Vector_6" d="M458.896 92.9597C458.896 95.5651 461.041 97.685 463.678 97.685C466.315 97.685 468.46 95.5651 468.46 92.9597C468.46 90.3543 466.315 88.2323 463.678 88.2323C461.041 88.2323 458.896 90.3522 458.896 92.9597ZM465.275 92.9597C465.275 93.8282 464.559 94.5334 463.68 94.5334C462.801 94.5334 462.085 93.8282 462.085 92.9597C462.085 92.0912 462.801 91.3839 463.68 91.3839C464.559 91.3839 465.275 92.0912 465.275 92.9597Z" fill="white"/>
</g>
<g id="cityport" clip-path="url(#clip3_6136_2)">
<path id="Vector_7" d="M440.68 145.803V146.085C440.68 149.099 442.393 152.571 445.774 156.402C448.188 159.142 450.575 161.056 450.676 161.136L451.678 161.935L452.678 161.136C452.779 161.056 455.166 159.142 457.58 156.402C460.96 152.571 462.678 149.099 462.678 146.085V145.803C462.68 139.811 457.746 134.935 451.68 134.935C445.615 134.935 440.68 139.811 440.68 145.803ZM459.491 145.801V146.083C459.491 150.103 454.531 155.318 451.684 157.832C450.816 157.064 449.495 155.823 448.177 154.331C445.358 151.133 443.867 148.281 443.867 146.083V145.801C443.867 141.546 447.372 138.087 451.68 138.087C455.988 138.087 459.493 141.546 459.493 145.801H459.491Z" fill="white"/>
<path id="Vector_8" d="M446.896 145.96C446.896 148.565 449.041 150.685 451.678 150.685C454.315 150.685 456.46 148.565 456.46 145.96C456.46 143.354 454.315 141.232 451.678 141.232C449.041 141.232 446.896 143.352 446.896 145.96ZM453.275 145.96C453.275 146.828 452.559 147.533 451.68 147.533C450.801 147.533 450.085 146.828 450.085 145.96C450.085 145.091 450.801 144.384 451.68 144.384C452.559 144.384 453.275 145.091 453.275 145.96Z" fill="white"/>
</g>
<g id="jungholz" clip-path="url(#clip4_6136_2)">
<path id="Vector_9" d="M484.68 106.803V107.085C484.68 110.099 486.393 113.571 489.774 117.402C492.188 120.142 494.575 122.056 494.676 122.136L495.678 122.935L496.678 122.136C496.779 122.056 499.166 120.142 501.58 117.402C504.96 113.571 506.678 110.099 506.678 107.085V106.803C506.68 100.811 501.746 95.9354 495.68 95.9354C489.615 95.9354 484.68 100.811 484.68 106.803ZM503.491 106.801V107.083C503.491 111.103 498.531 116.318 495.684 118.832C494.816 118.064 493.495 116.823 492.177 115.331C489.358 112.133 487.867 109.281 487.867 107.083V106.801C487.867 102.546 491.372 99.087 495.68 99.087C499.988 99.087 503.493 102.546 503.493 106.801H503.491Z" fill="white"/>
<path id="Vector_10" d="M490.896 106.96C490.896 109.565 493.041 111.685 495.678 111.685C498.315 111.685 500.46 109.565 500.46 106.96C500.46 104.354 498.315 102.232 495.678 102.232C493.041 102.232 490.896 104.352 490.896 106.96ZM497.275 106.96C497.275 107.828 496.559 108.533 495.68 108.533C494.801 108.533 494.085 107.828 494.085 106.96C494.085 106.091 494.801 105.384 495.68 105.384C496.559 105.384 497.275 106.091 497.275 106.96Z" fill="white"/>
</g>
<g id="maxbillplatz" clip-path="url(#clip5_6136_2)">
<path id="Vector_11" d="M419.68 67.8028V68.0853C419.68 71.0988 421.393 74.5706 424.774 78.4023C427.188 81.1417 429.575 83.0565 429.676 83.136L430.678 83.9354L431.678 83.136C431.779 83.0565 434.166 81.1417 436.58 78.4023C439.96 74.5706 441.678 71.0988 441.678 68.0853V67.8028C441.68 61.8114 436.746 56.9354 430.68 56.9354C424.615 56.9354 419.68 61.8114 419.68 67.8028ZM438.491 67.8007V68.0832C438.491 72.1033 433.531 77.3183 430.684 79.8316C429.816 79.0636 428.495 77.8227 427.177 76.3306C424.358 73.1329 422.867 70.2806 422.867 68.0832V67.8007C422.867 63.5463 426.372 60.087 430.68 60.087C434.988 60.087 438.493 63.5463 438.493 67.8007H438.491Z" fill="white"/>
<path id="Vector_12" d="M425.896 67.9597C425.896 70.5651 428.041 72.685 430.678 72.685C433.315 72.685 435.46 70.5651 435.46 67.9597C435.46 65.3543 433.315 63.2323 430.678 63.2323C428.041 63.2323 425.896 65.3522 425.896 67.9597ZM432.275 67.9597C432.275 68.8282 431.559 69.5334 430.68 69.5334C429.801 69.5334 429.085 68.8282 429.085 67.9597C429.085 67.0912 429.801 66.3839 430.68 66.3839C431.559 66.3839 432.275 67.0912 432.275 67.9597Z" fill="white"/>
</g>
<g id="messezuerichag" clip-path="url(#clip6_6136_2)">
<path id="Vector_13" d="M513.68 126.803V127.085C513.68 130.099 515.393 133.571 518.774 137.402C521.188 140.142 523.575 142.056 523.676 142.136L524.678 142.935L525.678 142.136C525.779 142.056 528.166 140.142 530.58 137.402C533.96 133.571 535.678 130.099 535.678 127.085V126.803C535.68 120.811 530.746 115.935 524.68 115.935C518.615 115.935 513.68 120.811 513.68 126.803ZM532.491 126.801V127.083C532.491 131.103 527.531 136.318 524.684 138.832C523.816 138.064 522.495 136.823 521.177 135.331C518.358 132.133 516.867 129.281 516.867 127.083V126.801C516.867 122.546 520.372 119.087 524.68 119.087C528.988 119.087 532.493 122.546 532.493 126.801H532.491Z" fill="white"/>
<path id="Vector_14" d="M519.896 126.96C519.896 129.565 522.041 131.685 524.678 131.685C527.315 131.685 529.46 129.565 529.46 126.96C529.46 124.354 527.315 122.232 524.678 122.232C522.041 122.232 519.896 124.352 519.896 126.96ZM526.275 126.96C526.275 127.828 525.559 128.533 524.68 128.533C523.801 128.533 523.085 127.828 523.085 126.96C523.085 126.091 523.801 125.384 524.68 125.384C525.559 125.384 526.275 126.091 526.275 126.96Z" fill="white"/>
</g>
<g id="nordhaus" clip-path="url(#clip7_6136_2)">
<path id="Vector_15" d="M466.68 132.803V133.085C466.68 136.099 468.393 139.571 471.774 143.402C474.188 146.142 476.575 148.056 476.676 148.136L477.678 148.935L478.678 148.136C478.779 148.056 481.166 146.142 483.58 143.402C486.96 139.571 488.678 136.099 488.678 133.085V132.803C488.68 126.811 483.746 121.935 477.68 121.935C471.615 121.935 466.68 126.811 466.68 132.803ZM485.491 132.801V133.083C485.491 137.103 480.531 142.318 477.684 144.832C476.816 144.064 475.495 142.823 474.177 141.331C471.358 138.133 469.867 135.281 469.867 133.083V132.801C469.867 128.546 473.372 125.087 477.68 125.087C481.988 125.087 485.493 128.546 485.493 132.801H485.491Z" fill="white"/>
<path id="Vector_16" d="M472.896 132.96C472.896 135.565 475.041 137.685 477.678 137.685C480.315 137.685 482.46 135.565 482.46 132.96C482.46 130.354 480.315 128.232 477.678 128.232C475.041 128.232 472.896 130.352 472.896 132.96ZM479.275 132.96C479.275 133.828 478.559 134.533 477.68 134.533C476.801 134.533 476.085 133.828 476.085 132.96C476.085 132.091 476.801 131.384 477.68 131.384C478.559 131.384 479.275 132.091 479.275 132.96Z" fill="white"/>
</g>
<g id="octavo" clip-path="url(#clip8_6136_2)">
<path id="Vector_17" d="M391.68 97.8028V98.0853C391.68 101.099 393.393 104.571 396.774 108.402C399.188 111.142 401.575 113.056 401.676 113.136L402.678 113.935L403.678 113.136C403.779 113.056 406.166 111.142 408.58 108.402C411.96 104.571 413.678 101.099 413.678 98.0853V97.8028C413.68 91.8114 408.746 86.9354 402.68 86.9354C396.615 86.9354 391.68 91.8114 391.68 97.8028ZM410.491 97.8007V98.0832C410.491 102.103 405.531 107.318 402.684 109.832C401.816 109.064 400.495 107.823 399.177 106.331C396.358 103.133 394.867 100.281 394.867 98.0832V97.8007C394.867 93.5463 398.372 90.087 402.68 90.087C406.988 90.087 410.493 93.5463 410.493 97.8007H410.491Z" fill="white"/>
<path id="Vector_18" d="M397.896 97.9597C397.896 100.565 400.041 102.685 402.678 102.685C405.315 102.685 407.46 100.565 407.46 97.9597C407.46 95.3543 405.315 93.2323 402.678 93.2323C400.041 93.2323 397.896 95.3522 397.896 97.9597ZM404.275 97.9597C404.275 98.8282 403.559 99.5334 402.68 99.5334C401.801 99.5334 401.085 98.8282 401.085 97.9597C401.085 97.0912 401.801 96.3839 402.68 96.3839C403.559 96.3839 404.275 97.0912 404.275 97.9597Z" fill="white"/>
</g>
<g id="parkside" clip-path="url(#clip9_6136_2)">
<path id="Vector_19" d="M428.68 103.803V104.085C428.68 107.099 430.393 110.571 433.774 114.402C436.188 117.142 438.575 119.056 438.676 119.136L439.678 119.935L440.678 119.136C440.779 119.056 443.166 117.142 445.58 114.402C448.96 110.571 450.678 107.099 450.678 104.085V103.803C450.68 97.8114 445.746 92.9354 439.68 92.9354C433.615 92.9354 428.68 97.8114 428.68 103.803ZM447.491 103.801V104.083C447.491 108.103 442.531 113.318 439.684 115.832C438.816 115.064 437.495 113.823 436.177 112.331C433.358 109.133 431.867 106.281 431.867 104.083V103.801C431.867 99.5463 435.372 96.087 439.68 96.087C443.988 96.087 447.493 99.5463 447.493 103.801H447.491Z" fill="white"/>
<path id="Vector_20" d="M434.896 103.96C434.896 106.565 437.041 108.685 439.678 108.685C442.315 108.685 444.46 106.565 444.46 103.96C444.46 101.354 442.315 99.2323 439.678 99.2323C437.041 99.2323 434.896 101.352 434.896 103.96ZM441.275 103.96C441.275 104.828 440.559 105.533 439.68 105.533C438.801 105.533 438.085 104.828 438.085 103.96C438.085 103.091 438.801 102.384 439.68 102.384C440.559 102.384 441.275 103.091 441.275 103.96Z" fill="white"/>
</g>
<g id="zueri11shopping" clip-path="url(#clip10_6136_2)">
<path id="Vector_21" d="M416.68 165.803V166.085C416.68 169.099 418.393 172.571 421.774 176.402C424.188 179.142 426.575 181.056 426.676 181.136L427.678 181.935L428.678 181.136C428.779 181.056 431.166 179.142 433.58 176.402C436.96 172.571 438.678 169.099 438.678 166.085V165.803C438.68 159.811 433.746 154.935 427.68 154.935C421.615 154.935 416.68 159.811 416.68 165.803ZM435.491 165.801V166.083C435.491 170.103 430.531 175.318 427.684 177.832C426.816 177.064 425.495 175.823 424.177 174.331C421.358 171.133 419.867 168.281 419.867 166.083V165.801C419.867 161.546 423.372 158.087 427.68 158.087C431.988 158.087 435.493 161.546 435.493 165.801H435.491Z" fill="white"/>
<path id="Vector_22" d="M422.896 165.96C422.896 168.565 425.041 170.685 427.678 170.685C430.315 170.685 432.46 168.565 432.46 165.96C432.46 163.354 430.315 161.232 427.678 161.232C425.041 161.232 422.896 163.352 422.896 165.96ZM429.275 165.96C429.275 166.828 428.559 167.533 427.68 167.533C426.801 167.533 426.085 166.828 426.085 165.96C426.085 165.091 426.801 164.384 427.68 164.384C428.559 164.384 429.275 165.091 429.275 165.96Z" fill="white"/>
</g>
<g id="theater11" clip-path="url(#clip11_6136_2)">
<path id="Vector_23" d="M462.68 168.803V169.085C462.68 172.099 464.393 175.571 467.774 179.402C470.188 182.142 472.575 184.056 472.676 184.136L473.678 184.935L474.678 184.136C474.779 184.056 477.166 182.142 479.58 179.402C482.96 175.571 484.678 172.099 484.678 169.085V168.803C484.68 162.811 479.746 157.935 473.68 157.935C467.615 157.935 462.68 162.811 462.68 168.803ZM481.491 168.801V169.083C481.491 173.103 476.531 178.318 473.684 180.832C472.816 180.064 471.495 178.823 470.177 177.331C467.358 174.133 465.867 171.281 465.867 169.083V168.801C465.867 164.546 469.372 161.087 473.68 161.087C477.988 161.087 481.493 164.546 481.493 168.801H481.491Z" fill="white"/>
<path id="Vector_24" d="M468.896 168.96C468.896 171.565 471.041 173.685 473.678 173.685C476.315 173.685 478.46 171.565 478.46 168.96C478.46 166.354 476.315 164.232 473.678 164.232C471.041 164.232 468.896 166.352 468.896 168.96ZM475.275 168.96C475.275 169.828 474.559 170.533 473.68 170.533C472.801 170.533 472.085 169.828 472.085 168.96C472.085 168.091 472.801 167.384 473.68 167.384C474.559 167.384 475.275 168.091 475.275 168.96Z" fill="white"/>
</g>
</g>
<g id="kreis7_2">
<g id="feldegg" clip-path="url(#clip12_6136_2)">
<path id="Vector_25" d="M519.68 483.803V484.085C519.68 487.099 521.393 490.571 524.774 494.402C527.188 497.142 529.575 499.056 529.676 499.136L530.678 499.935L531.678 499.136C531.779 499.056 534.166 497.142 536.58 494.402C539.96 490.571 541.678 487.099 541.678 484.085V483.803C541.68 477.811 536.746 472.935 530.68 472.935C524.615 472.935 519.68 477.811 519.68 483.803ZM538.491 483.801V484.083C538.491 488.103 533.531 493.318 530.684 495.832C529.816 495.064 528.495 493.823 527.177 492.331C524.358 489.133 522.867 486.281 522.867 484.083V483.801C522.867 479.546 526.372 476.087 530.68 476.087C534.988 476.087 538.493 479.546 538.493 483.801H538.491Z" fill="white"/>
<path id="Vector_26" d="M525.896 483.96C525.896 486.565 528.041 488.685 530.678 488.685C533.315 488.685 535.46 486.565 535.46 483.96C535.46 481.354 533.315 479.232 530.678 479.232C528.041 479.232 525.896 481.352 525.896 483.96ZM532.275 483.96C532.275 484.828 531.559 485.533 530.68 485.533C529.801 485.533 529.085 484.828 529.085 483.96C529.085 483.091 529.801 482.384 530.68 482.384C531.559 482.384 532.275 483.091 532.275 483.96Z" fill="white"/>
</g>
<g id="utoquai" clip-path="url(#clip13_6136_2)">
<path id="Vector_27" d="M535.68 447.803V448.085C535.68 451.099 537.393 454.571 540.774 458.402C543.188 461.142 545.575 463.056 545.676 463.136L546.678 463.935L547.678 463.136C547.779 463.056 550.166 461.142 552.58 458.402C555.96 454.571 557.678 451.099 557.678 448.085V447.803C557.68 441.811 552.746 436.935 546.68 436.935C540.615 436.935 535.68 441.811 535.68 447.803ZM554.491 447.801V448.083C554.491 452.103 549.531 457.318 546.684 459.832C545.816 459.064 544.495 457.823 543.177 456.331C540.358 453.133 538.867 450.281 538.867 448.083V447.801C538.867 443.546 542.372 440.087 546.68 440.087C550.988 440.087 554.493 443.546 554.493 447.801H554.491Z" fill="white"/>
<path id="Vector_28" d="M541.896 447.96C541.896 450.565 544.041 452.685 546.678 452.685C549.315 452.685 551.46 450.565 551.46 447.96C551.46 445.354 549.315 443.232 546.678 443.232C544.041 443.232 541.896 445.352 541.896 447.96ZM548.275 447.96C548.275 448.828 547.559 449.533 546.68 449.533C545.801 449.533 545.085 448.828 545.085 447.96C545.085 447.091 545.801 446.384 546.68 446.384C547.559 446.384 548.275 447.091 548.275 447.96Z" fill="white"/>
</g>
<g id="zuerichhorn" clip-path="url(#clip14_6136_2)">
<path id="Vector_29" d="M543.68 505.803V506.085C543.68 509.099 545.393 512.571 548.774 516.402C551.188 519.142 553.575 521.056 553.676 521.136L554.678 521.935L555.678 521.136C555.779 521.056 558.166 519.142 560.58 516.402C563.96 512.571 565.678 509.099 565.678 506.085V505.803C565.68 499.811 560.746 494.935 554.68 494.935C548.615 494.935 543.68 499.811 543.68 505.803ZM562.491 505.801V506.083C562.491 510.103 557.531 515.318 554.684 517.832C553.816 517.064 552.495 515.823 551.177 514.331C548.358 511.133 546.867 508.281 546.867 506.083V505.801C546.867 501.546 550.372 498.087 554.68 498.087C558.988 498.087 562.493 501.546 562.493 505.801H562.491Z" fill="white"/>
<path id="Vector_30" d="M549.896 505.96C549.896 508.565 552.041 510.685 554.678 510.685C557.315 510.685 559.46 508.565 559.46 505.96C559.46 503.354 557.315 501.232 554.678 501.232C552.041 501.232 549.896 503.352 549.896 505.96ZM556.275 505.96C556.275 506.828 555.559 507.533 554.68 507.533C553.801 507.533 553.085 506.828 553.085 505.96C553.085 505.091 553.801 504.384 554.68 504.384C555.559 504.384 556.275 505.091 556.275 505.96Z" fill="white"/>
</g>
</g>
<g id="kreis6_2">
<g id="stampfenbach " clip-path="url(#clip15_6136_2)">
<path id="Vector_31" d="M447.68 309.803V310.085C447.68 313.099 449.393 316.571 452.774 320.402C455.188 323.142 457.575 325.056 457.676 325.136L458.678 325.935L459.678 325.136C459.779 325.056 462.166 323.142 464.58 320.402C467.96 316.571 469.678 313.099 469.678 310.085V309.803C469.68 303.811 464.746 298.935 458.68 298.935C452.615 298.935 447.68 303.811 447.68 309.803ZM466.491 309.801V310.083C466.491 314.103 461.531 319.318 458.684 321.832C457.816 321.064 456.495 319.823 455.177 318.331C452.358 315.133 450.867 312.281 450.867 310.083V309.801C450.867 305.546 454.372 302.087 458.68 302.087C462.988 302.087 466.493 305.546 466.493 309.801H466.491Z" fill="white"/>
<path id="Vector_32" d="M453.896 309.96C453.896 312.565 456.041 314.685 458.678 314.685C461.315 314.685 463.46 312.565 463.46 309.96C463.46 307.354 461.315 305.232 458.678 305.232C456.041 305.232 453.896 307.352 453.896 309.96ZM460.275 309.96C460.275 310.828 459.559 311.533 458.68 311.533C457.801 311.533 457.085 310.828 457.085 309.96C457.085 309.091 457.801 308.384 458.68 308.384C459.559 308.384 460.275 309.091 460.275 309.96Z" fill="white"/>
</g>
<g id="usznord " clip-path="url(#clip16_6136_2)">
<path id="Vector_33" d="M513.68 343.803V344.085C513.68 347.099 515.393 350.571 518.774 354.402C521.188 357.142 523.575 359.056 523.676 359.136L524.678 359.935L525.678 359.136C525.779 359.056 528.166 357.142 530.58 354.402C533.96 350.571 535.678 347.099 535.678 344.085V343.803C535.68 337.811 530.746 332.935 524.68 332.935C518.615 332.935 513.68 337.811 513.68 343.803ZM532.491 343.801V344.083C532.491 348.103 527.531 353.318 524.684 355.832C523.816 355.064 522.495 353.823 521.177 352.331C518.358 349.133 516.867 346.281 516.867 344.083V343.801C516.867 339.546 520.372 336.087 524.68 336.087C528.988 336.087 532.493 339.546 532.493 343.801H532.491Z" fill="white"/>
<path id="Vector_34" d="M519.896 343.96C519.896 346.565 522.041 348.685 524.678 348.685C527.315 348.685 529.46 346.565 529.46 343.96C529.46 341.354 527.315 339.232 524.678 339.232C522.041 339.232 519.896 341.352 519.896 343.96ZM526.275 343.96C526.275 344.828 525.559 345.533 524.68 345.533C523.801 345.533 523.085 344.828 523.085 343.96C523.085 343.091 523.801 342.384 524.68 342.384C525.559 342.384 526.275 343.091 526.275 343.96Z" fill="white"/>
</g>
<g id="uszs&#195;&#188;d" clip-path="url(#clip17_6136_2)">
<path id="Vector_35" d="M485.68 393.803V394.085C485.68 397.099 487.393 400.571 490.774 404.402C493.188 407.142 495.575 409.056 495.676 409.136L496.678 409.935L497.678 409.136C497.779 409.056 500.166 407.142 502.58 404.402C505.96 400.571 507.678 397.099 507.678 394.085V393.803C507.68 387.811 502.746 382.935 496.68 382.935C490.615 382.935 485.68 387.811 485.68 393.803ZM504.491 393.801V394.083C504.491 398.103 499.531 403.318 496.684 405.832C495.816 405.064 494.495 403.823 493.177 402.331C490.358 399.133 488.867 396.281 488.867 394.083V393.801C488.867 389.546 492.372 386.087 496.68 386.087C500.988 386.087 504.493 389.546 504.493 393.801H504.491Z" fill="white"/>
<path id="Vector_36" d="M491.896 393.96C491.896 396.565 494.041 398.685 496.678 398.685C499.315 398.685 501.46 396.565 501.46 393.96C501.46 391.354 499.315 389.232 496.678 389.232C494.041 389.232 491.896 391.352 491.896 393.96ZM498.275 393.96C498.275 394.828 497.559 395.533 496.68 395.533C495.801 395.533 495.085 394.828 495.085 393.96C495.085 393.091 495.801 392.384 496.68 392.384C497.559 392.384 498.275 393.091 498.275 393.96Z" fill="white"/>
</g>
<g id="uniirchel" clip-path="url(#clip18_6136_2)">
<path id="Vector_37" d="M428.68 271.856V272.14C428.68 275.169 430.393 278.658 433.774 282.508C436.188 285.261 438.575 287.185 438.676 287.265L439.678 288.069L440.678 287.265C440.779 287.185 443.166 285.261 445.58 282.508C448.96 278.658 450.678 275.169 450.678 272.14V271.856C450.68 265.835 445.746 260.935 439.68 260.935C433.615 260.935 428.68 265.835 428.68 271.856ZM447.491 271.854V272.138C447.491 276.178 442.531 281.419 439.684 283.945C438.816 283.173 437.495 281.926 436.177 280.426C433.358 277.213 431.867 274.346 431.867 272.138V271.854C431.867 267.579 435.372 264.103 439.68 264.103C443.988 264.103 447.493 267.579 447.493 271.854H447.491Z" fill="white"/>
<path id="Vector_38" d="M434.896 272.014C434.896 274.632 437.041 276.763 439.678 276.763C442.315 276.763 444.46 274.632 444.46 272.014C444.46 269.396 442.315 267.263 439.678 267.263C437.041 267.263 434.896 269.394 434.896 272.014ZM441.275 272.014C441.275 272.887 440.559 273.596 439.68 273.596C438.801 273.596 438.085 272.887 438.085 272.014C438.085 271.141 438.801 270.431 439.68 270.431C440.559 270.431 441.275 271.141 441.275 272.014Z" fill="white"/>
</g>
</g>
<g id="kreis5_2">
<g id="pwest" clip-path="url(#clip19_6136_2)">
<path id="Vector_39" d="M288.68 308.803V309.085C288.68 312.099 290.393 315.571 293.774 319.402C296.188 322.142 298.575 324.056 298.676 324.136L299.678 324.935L300.678 324.136C300.779 324.056 303.166 322.142 305.58 319.402C308.96 315.571 310.678 312.099 310.678 309.085V308.803C310.68 302.811 305.746 297.935 299.68 297.935C293.615 297.935 288.68 302.811 288.68 308.803ZM307.491 308.801V309.083C307.491 313.103 302.531 318.318 299.684 320.832C298.816 320.064 297.495 318.823 296.177 317.331C293.358 314.133 291.867 311.281 291.867 309.083V308.801C291.867 304.546 295.372 301.087 299.68 301.087C303.988 301.087 307.493 304.546 307.493 308.801H307.491Z" fill="white"/>
<path id="Vector_40" d="M294.896 308.96C294.896 311.565 297.041 313.685 299.678 313.685C302.315 313.685 304.46 311.565 304.46 308.96C304.46 306.354 302.315 304.232 299.678 304.232C297.041 304.232 294.896 306.352 294.896 308.96ZM301.275 308.96C301.275 309.828 300.559 310.533 299.68 310.533C298.801 310.533 298.085 309.828 298.085 308.96C298.085 308.091 298.801 307.384 299.68 307.384C300.559 307.384 301.275 308.091 301.275 308.96Z" fill="white"/>
</g>
<g id="pfingstweid " clip-path="url(#clip20_6136_2)">
<path id="Vector_41" d="M353.68 345.803V346.085C353.68 349.099 355.393 352.571 358.774 356.402C361.188 359.142 363.575 361.056 363.676 361.136L364.678 361.935L365.678 361.136C365.779 361.056 368.166 359.142 370.58 356.402C373.96 352.571 375.678 349.099 375.678 346.085V345.803C375.68 339.811 370.746 334.935 364.68 334.935C358.615 334.935 353.68 339.811 353.68 345.803ZM372.491 345.801V346.083C372.491 350.103 367.531 355.318 364.684 357.832C363.816 357.064 362.495 355.823 361.177 354.331C358.358 351.133 356.867 348.281 356.867 346.083V345.801C356.867 341.546 360.372 338.087 364.68 338.087C368.988 338.087 372.493 341.546 372.493 345.801H372.491Z" fill="white"/>
<path id="Vector_42" d="M359.896 345.96C359.896 348.565 362.041 350.685 364.678 350.685C367.315 350.685 369.46 348.565 369.46 345.96C369.46 343.354 367.315 341.232 364.678 341.232C362.041 341.232 359.896 343.352 359.896 345.96ZM366.275 345.96C366.275 346.828 365.559 347.533 364.68 347.533C363.801 347.533 363.085 346.828 363.085 345.96C363.085 345.091 363.801 344.384 364.68 344.384C365.559 344.384 366.275 345.091 366.275 345.96Z" fill="white"/>
</g>
<g id="puls5parkgarage" clip-path="url(#clip21_6136_2)">
<path id="Vector_43" d="M326.68 315.803V316.085C326.68 319.099 328.393 322.571 331.774 326.402C334.188 329.142 336.575 331.056 336.676 331.136L337.678 331.935L338.678 331.136C338.779 331.056 341.166 329.142 343.58 326.402C346.96 322.571 348.678 319.099 348.678 316.085V315.803C348.68 309.811 343.746 304.935 337.68 304.935C331.615 304.935 326.68 309.811 326.68 315.803ZM345.491 315.801V316.083C345.491 320.103 340.531 325.318 337.684 327.832C336.816 327.064 335.495 325.823 334.177 324.331C331.358 321.133 329.867 318.281 329.867 316.083V315.801C329.867 311.546 333.372 308.087 337.68 308.087C341.988 308.087 345.493 311.546 345.493 315.801H345.491Z" fill="white"/>
<path id="Vector_44" d="M332.896 315.96C332.896 318.565 335.041 320.685 337.678 320.685C340.315 320.685 342.46 318.565 342.46 315.96C342.46 313.354 340.315 311.232 337.678 311.232C335.041 311.232 332.896 313.352 332.896 315.96ZM339.275 315.96C339.275 316.828 338.559 317.533 337.68 317.533C336.801 317.533 336.085 316.828 336.085 315.96C336.085 315.091 336.801 314.384 337.68 314.384C338.559 314.384 339.275 315.091 339.275 315.96Z" fill="white"/>
</g>
</g>
<g id="kreis4_2">
<g id="hardau2" clip-path="url(#clip22_6136_2)">
<path id="Vector_45" d="M329.68 380.803V381.085C329.68 384.099 331.393 387.571 334.774 391.402C337.188 394.142 339.575 396.056 339.676 396.136L340.678 396.935L341.678 396.136C341.779 396.056 344.166 394.142 346.58 391.402C349.96 387.571 351.678 384.099 351.678 381.085V380.803C351.68 374.811 346.746 369.935 340.68 369.935C334.615 369.935 329.68 374.811 329.68 380.803ZM348.491 380.801V381.083C348.491 385.103 343.531 390.318 340.684 392.832C339.816 392.064 338.495 390.823 337.177 389.331C334.358 386.133 332.867 383.281 332.867 381.083V380.801C332.867 376.546 336.372 373.087 340.68 373.087C344.988 373.087 348.493 376.546 348.493 380.801H348.491Z" fill="white"/>
<path id="Vector_46" d="M335.896 380.96C335.896 383.565 338.041 385.685 340.678 385.685C343.315 385.685 345.46 383.565 345.46 380.96C345.46 378.354 343.315 376.232 340.678 376.232C338.041 376.232 335.896 378.352 335.896 380.96ZM342.275 380.96C342.275 381.828 341.559 382.533 340.68 382.533C339.801 382.533 339.085 381.828 339.085 380.96C339.085 380.091 339.801 379.384 340.68 379.384C341.559 379.384 342.275 380.091 342.275 380.96Z" fill="white"/>
</g>
<g id="helvetiaplatz" clip-path="url(#clip23_6136_2)">
<path id="Vector_47" d="M408.68 412.803V413.085C408.68 416.099 410.393 419.571 413.774 423.402C416.188 426.142 418.575 428.056 418.676 428.136L419.678 428.935L420.678 428.136C420.779 428.056 423.166 426.142 425.58 423.402C428.96 419.571 430.678 416.099 430.678 413.085V412.803C430.68 406.811 425.746 401.935 419.68 401.935C413.615 401.935 408.68 406.811 408.68 412.803ZM427.491 412.801V413.083C427.491 417.103 422.531 422.318 419.684 424.832C418.816 424.064 417.495 422.823 416.177 421.331C413.358 418.133 411.867 415.281 411.867 413.083V412.801C411.867 408.546 415.372 405.087 419.68 405.087C423.988 405.087 427.493 408.546 427.493 412.801H427.491Z" fill="white"/>
<path id="Vector_48" d="M414.896 412.96C414.896 415.565 417.041 417.685 419.678 417.685C422.315 417.685 424.46 415.565 424.46 412.96C424.46 410.354 422.315 408.232 419.678 408.232C417.041 408.232 414.896 410.352 414.896 412.96ZM421.275 412.96C421.275 413.828 420.559 414.533 419.68 414.533C418.801 414.533 418.085 413.828 418.085 412.96C418.085 412.091 418.801 411.384 419.68 411.384C420.559 411.384 421.275 412.091 421.275 412.96Z" fill="white"/>
</g>
<g id="crowneplaza" clip-path="url(#clip24_6136_2)">
<path id="Vector_49" d="M299.68 374.856V375.14C299.68 378.169 301.393 381.658 304.774 385.508C307.188 388.261 309.575 390.185 309.676 390.265L310.678 391.069L311.678 390.265C311.779 390.185 314.166 388.261 316.58 385.508C319.96 381.658 321.678 378.169 321.678 375.14V374.856C321.68 368.835 316.746 363.935 310.68 363.935C304.615 363.935 299.68 368.835 299.68 374.856ZM318.491 374.854V375.138C318.491 379.178 313.531 384.419 310.684 386.945C309.816 386.173 308.495 384.926 307.177 383.426C304.358 380.213 302.867 377.346 302.867 375.138V374.854C302.867 370.579 306.372 367.103 310.68 367.103C314.988 367.103 318.493 370.579 318.493 374.854H318.491Z" fill="white"/>
<path id="Vector_50" d="M305.896 375.014C305.896 377.632 308.041 379.763 310.678 379.763C313.315 379.763 315.46 377.632 315.46 375.014C315.46 372.396 313.315 370.263 310.678 370.263C308.041 370.263 305.896 372.394 305.896 375.014ZM312.275 375.014C312.275 375.887 311.559 376.596 310.68 376.596C309.801 376.596 309.085 375.887 309.085 375.014C309.085 374.141 309.801 373.431 310.68 373.431C311.559 373.431 312.275 374.141 312.275 375.014Z" fill="white"/>
</g>
</g>
<g id="kreis3_2">
<g id="albisriederplatz" clip-path="url(#clip25_6136_2)">
<path id="Vector_51" d="M340.68 470.856V471.14C340.68 474.169 342.393 477.658 345.774 481.508C348.188 484.261 350.575 486.185 350.676 486.265L351.678 487.069L352.678 486.265C352.779 486.185 355.166 484.261 357.58 481.508C360.96 477.658 362.678 474.169 362.678 471.14V470.856C362.68 464.835 357.746 459.935 351.68 459.935C345.615 459.935 340.68 464.835 340.68 470.856ZM359.491 470.854V471.138C359.491 475.178 354.531 480.419 351.684 482.945C350.816 482.173 349.495 480.926 348.177 479.426C345.358 476.213 343.867 473.346 343.867 471.138V470.854C343.867 466.579 347.372 463.103 351.68 463.103C355.988 463.103 359.493 466.579 359.493 470.854H359.491Z" fill="white"/>
<path id="Vector_52" d="M346.896 471.014C346.896 473.632 349.041 475.763 351.678 475.763C354.315 475.763 356.46 473.632 356.46 471.014C356.46 468.396 354.315 466.263 351.678 466.263C349.041 466.263 346.896 468.394 346.896 471.014ZM353.275 471.014C353.275 471.887 352.559 472.596 351.68 472.596C350.801 472.596 350.085 471.887 350.085 471.014C350.085 470.141 350.801 469.431 351.68 469.431C352.559 469.431 353.275 470.141 353.275 471.014Z" fill="white"/>
</g>
</g>
<g id="kreis2_2">
<g id="parkhyatt" clip-path="url(#clip26_6136_2)">
<path id="Vector_53" d="M428.68 499.856V500.14C428.68 503.169 430.393 506.658 433.774 510.508C436.188 513.261 438.575 515.185 438.676 515.265L439.678 516.069L440.678 515.265C440.779 515.185 443.166 513.261 445.58 510.508C448.96 506.658 450.678 503.169 450.678 500.14V499.856C450.68 493.835 445.746 488.935 439.68 488.935C433.615 488.935 428.68 493.835 428.68 499.856ZM447.491 499.854V500.138C447.491 504.178 442.531 509.419 439.684 511.945C438.816 511.173 437.495 509.926 436.177 508.426C433.358 505.213 431.867 502.346 431.867 500.138V499.854C431.867 495.579 435.372 492.103 439.68 492.103C443.988 492.103 447.493 495.579 447.493 499.854H447.491Z" fill="white"/>
<path id="Vector_54" d="M434.896 500.014C434.896 502.632 437.041 504.763 439.678 504.763C442.315 504.763 444.46 502.632 444.46 500.014C444.46 497.396 442.315 495.263 439.678 495.263C437.041 495.263 434.896 497.394 434.896 500.014ZM441.275 500.014C441.275 500.887 440.559 501.596 439.68 501.596C438.801 501.596 438.085 500.887 438.085 500.014C438.085 499.141 438.801 498.431 439.68 498.431C440.559 498.431 441.275 499.141 441.275 500.014Z" fill="white"/>
</g>
</g>
<g id="kreis1_2">
<g id="bleicherweg" clip-path="url(#clip27_6136_2)">
<path id="Vector_55" d="M453.68 489.803V490.085C453.68 493.099 455.393 496.571 458.774 500.402C461.188 503.142 463.575 505.056 463.676 505.136L464.678 505.935L465.678 505.136C465.779 505.056 468.166 503.142 470.58 500.402C473.96 496.571 475.678 493.099 475.678 490.085V489.803C475.68 483.811 470.746 478.935 464.68 478.935C458.615 478.935 453.68 483.811 453.68 489.803ZM472.491 489.801V490.083C472.491 494.103 467.531 499.318 464.684 501.832C463.816 501.064 462.495 499.823 461.177 498.331C458.358 495.133 456.867 492.281 456.867 490.083V489.801C456.867 485.546 460.372 482.087 464.68 482.087C468.988 482.087 472.493 485.546 472.493 489.801H472.491Z" fill="white"/>
<path id="Vector_56" d="M459.896 489.96C459.896 492.565 462.041 494.685 464.678 494.685C467.315 494.685 469.46 492.565 469.46 489.96C469.46 487.354 467.315 485.232 464.678 485.232C462.041 485.232 459.896 487.352 459.896 489.96ZM466.275 489.96C466.275 490.828 465.559 491.533 464.68 491.533C463.801 491.533 463.085 490.828 463.085 489.96C463.085 489.091 463.801 488.384 464.68 488.384C465.559 488.384 466.275 489.091 466.275 489.96Z" fill="white"/>
</g>
<g id="cityparking" clip-path="url(#clip28_6136_2)">
<path id="Vector_57" d="M426.68 431.803V432.085C426.68 435.099 428.393 438.571 431.774 442.402C434.188 445.142 436.575 447.056 436.676 447.136L437.678 447.935L438.678 447.136C438.779 447.056 441.166 445.142 443.58 442.402C446.96 438.571 448.678 435.099 448.678 432.085V431.803C448.68 425.811 443.746 420.935 437.68 420.935C431.615 420.935 426.68 425.811 426.68 431.803ZM445.491 431.801V432.083C445.491 436.103 440.531 441.318 437.684 443.832C436.816 443.064 435.495 441.823 434.177 440.331C431.358 437.133 429.867 434.281 429.867 432.083V431.801C429.867 427.546 433.372 424.087 437.68 424.087C441.988 424.087 445.493 427.546 445.493 431.801H445.491Z" fill="white"/>
<path id="Vector_58" d="M432.896 431.96C432.896 434.565 435.041 436.685 437.678 436.685C440.315 436.685 442.46 434.565 442.46 431.96C442.46 429.354 440.315 427.232 437.678 427.232C435.041 427.232 432.896 429.352 432.896 431.96ZM439.275 431.96C439.275 432.828 438.559 433.533 437.68 433.533C436.801 433.533 436.085 432.828 436.085 431.96C436.085 431.091 436.801 430.384 437.68 430.384C438.559 430.384 439.275 431.091 439.275 431.96Z" fill="white"/>
</g>
<g id="globus" clip-path="url(#clip29_6136_2)">
<path id="Vector_59" d="M449.68 447.803V448.085C449.68 451.099 451.393 454.571 454.774 458.402C457.188 461.142 459.575 463.056 459.676 463.136L460.678 463.935L461.678 463.136C461.779 463.056 464.166 461.142 466.58 458.402C469.96 454.571 471.678 451.099 471.678 448.085V447.803C471.68 441.811 466.746 436.935 460.68 436.935C454.615 436.935 449.68 441.811 449.68 447.803ZM468.491 447.801V448.083C468.491 452.103 463.531 457.318 460.684 459.832C459.816 459.064 458.495 457.823 457.177 456.331C454.358 453.133 452.867 450.281 452.867 448.083V447.801C452.867 443.546 456.372 440.087 460.68 440.087C464.988 440.087 468.493 443.546 468.493 447.801H468.491Z" fill="white"/>
<path id="Vector_60" d="M455.896 447.96C455.896 450.565 458.041 452.685 460.678 452.685C463.315 452.685 465.46 450.565 465.46 447.96C465.46 445.354 463.315 443.232 460.678 443.232C458.041 443.232 455.896 445.352 455.896 447.96ZM462.275 447.96C462.275 448.828 461.559 449.533 460.68 449.533C459.801 449.533 459.085 448.828 459.085 447.96C459.085 447.091 459.801 446.384 460.68 446.384C461.559 446.384 462.275 447.091 462.275 447.96Z" fill="white"/>
</g>
<g id="hauptbahnhof" clip-path="url(#clip30_6136_2)">
<path id="Vector_61" d="M449.68 417.803V418.085C449.68 421.099 451.393 424.571 454.774 428.402C457.188 431.142 459.575 433.056 459.676 433.136L460.678 433.935L461.678 433.136C461.779 433.056 464.166 431.142 466.58 428.402C469.96 424.571 471.678 421.099 471.678 418.085V417.803C471.68 411.811 466.746 406.935 460.68 406.935C454.615 406.935 449.68 411.811 449.68 417.803ZM468.491 417.801V418.083C468.491 422.103 463.531 427.318 460.684 429.832C459.816 429.064 458.495 427.823 457.177 426.331C454.358 423.133 452.867 420.281 452.867 418.083V417.801C452.867 413.546 456.372 410.087 460.68 410.087C464.988 410.087 468.493 413.546 468.493 417.801H468.491Z" fill="white"/>
<path id="Vector_62" d="M455.896 417.96C455.896 420.565 458.041 422.685 460.678 422.685C463.315 422.685 465.46 420.565 465.46 417.96C465.46 415.354 463.315 413.232 460.678 413.232C458.041 413.232 455.896 415.352 455.896 417.96ZM462.275 417.96C462.275 418.828 461.559 419.533 460.68 419.533C459.801 419.533 459.085 418.828 459.085 417.96C459.085 417.091 459.801 416.384 460.68 416.384C461.559 416.384 462.275 417.091 462.275 417.96Z" fill="white"/>
</g>
<g id="hohepromenade" clip-path="url(#clip31_6136_2)">
<path id="Vector_63" d="M481.68 463.803V464.085C481.68 467.099 483.393 470.571 486.774 474.402C489.188 477.142 491.575 479.056 491.676 479.136L492.678 479.935L493.678 479.136C493.779 479.056 496.166 477.142 498.58 474.402C501.96 470.571 503.678 467.099 503.678 464.085V463.803C503.68 457.811 498.746 452.935 492.68 452.935C486.615 452.935 481.68 457.811 481.68 463.803ZM500.491 463.801V464.083C500.491 468.103 495.531 473.318 492.684 475.832C491.816 475.064 490.495 473.823 489.177 472.331C486.358 469.133 484.867 466.281 484.867 464.083V463.801C484.867 459.546 488.372 456.087 492.68 456.087C496.988 456.087 500.493 459.546 500.493 463.801H500.491Z" fill="white"/>
<path id="Vector_64" d="M487.896 463.96C487.896 466.565 490.041 468.685 492.678 468.685C495.315 468.685 497.46 466.565 497.46 463.96C497.46 461.354 495.315 459.232 492.678 459.232C490.041 459.232 487.896 461.352 487.896 463.96ZM494.275 463.96C494.275 464.828 493.559 465.533 492.68 465.533C491.801 465.533 491.085 464.828 491.085 463.96C491.085 463.091 491.801 462.384 492.68 462.384C493.559 462.384 494.275 463.091 494.275 463.96Z" fill="white"/>
</g>
<g id="jelmoli" clip-path="url(#clip32_6136_2)">
<path id="Vector_65" d="M436.68 470.803V471.085C436.68 474.099 438.393 477.571 441.774 481.402C444.188 484.142 446.575 486.056 446.676 486.136L447.678 486.935L448.678 486.136C448.779 486.056 451.166 484.142 453.58 481.402C456.96 477.571 458.678 474.099 458.678 471.085V470.803C458.68 464.811 453.746 459.935 447.68 459.935C441.615 459.935 436.68 464.811 436.68 470.803ZM455.491 470.801V471.083C455.491 475.103 450.531 480.318 447.684 482.832C446.816 482.064 445.495 480.823 444.177 479.331C441.358 476.133 439.867 473.281 439.867 471.083V470.801C439.867 466.546 443.372 463.087 447.68 463.087C451.988 463.087 455.493 466.546 455.493 470.801H455.491Z" fill="white"/>
<path id="Vector_66" d="M442.896 470.96C442.896 473.565 445.041 475.685 447.678 475.685C450.315 475.685 452.46 473.565 452.46 470.96C452.46 468.354 450.315 466.232 447.678 466.232C445.041 466.232 442.896 468.352 442.896 470.96ZM449.275 470.96C449.275 471.828 448.559 472.533 447.68 472.533C446.801 472.533 446.085 471.828 446.085 470.96C446.085 470.091 446.801 469.384 447.68 469.384C448.559 469.384 449.275 470.091 449.275 470.96Z" fill="white"/>
</g>
<g id="opera" clip-path="url(#clip33_6136_2)">
<path id="Vector_67" d="M487.68 493.803V494.085C487.68 497.099 489.393 500.571 492.774 504.402C495.188 507.142 497.575 509.056 497.676 509.136L498.678 509.935L499.678 509.136C499.779 509.056 502.166 507.142 504.58 504.402C507.96 500.571 509.678 497.099 509.678 494.085V493.803C509.68 487.811 504.746 482.935 498.68 482.935C492.615 482.935 487.68 487.811 487.68 493.803ZM506.491 493.801V494.083C506.491 498.103 501.531 503.318 498.684 505.832C497.816 505.064 496.495 503.823 495.177 502.331C492.358 499.133 490.867 496.281 490.867 494.083V493.801C490.867 489.546 494.372 486.087 498.68 486.087C502.988 486.087 506.493 489.546 506.493 493.801H506.491Z" fill="white"/>
<path id="Vector_68" d="M493.896 493.96C493.896 496.565 496.041 498.685 498.678 498.685C501.315 498.685 503.46 496.565 503.46 493.96C503.46 491.354 501.315 489.232 498.678 489.232C496.041 489.232 493.896 491.352 493.896 493.96ZM500.275 493.96C500.275 494.828 499.559 495.533 498.68 495.533C497.801 495.533 497.085 494.828 497.085 493.96C497.085 493.091 497.801 492.384 498.68 492.384C499.559 492.384 500.275 493.091 500.275 493.96Z" fill="white"/>
</g>
<g id="talgarten " clip-path="url(#clip34_6136_2)">
<path id="Vector_69" d="M417.68 456.803V457.085C417.68 460.099 419.393 463.571 422.774 467.402C425.188 470.142 427.575 472.056 427.676 472.136L428.678 472.935L429.678 472.136C429.779 472.056 432.166 470.142 434.58 467.402C437.96 463.571 439.678 460.099 439.678 457.085V456.803C439.68 450.811 434.746 445.935 428.68 445.935C422.615 445.935 417.68 450.811 417.68 456.803ZM436.491 456.801V457.083C436.491 461.103 431.531 466.318 428.684 468.832C427.816 468.064 426.495 466.823 425.177 465.331C422.358 462.133 420.867 459.281 420.867 457.083V456.801C420.867 452.546 424.372 449.087 428.68 449.087C432.988 449.087 436.493 452.546 436.493 456.801H436.491Z" fill="white"/>
<path id="Vector_70" d="M423.896 456.96C423.896 459.565 426.041 461.685 428.678 461.685C431.315 461.685 433.46 459.565 433.46 456.96C433.46 454.354 431.315 452.232 428.678 452.232C426.041 452.232 423.896 454.352 423.896 456.96ZM430.275 456.96C430.275 457.828 429.559 458.533 428.68 458.533C427.801 458.533 427.085 457.828 427.085 456.96C427.085 456.091 427.801 455.384 428.68 455.384C429.559 455.384 430.275 456.091 430.275 456.96Z" fill="white"/>
</g>
<g id="urania" clip-path="url(#clip35_6136_2)">
<path id="Vector_71" d="M481.68 431.803V432.085C481.68 435.099 483.393 438.571 486.774 442.402C489.188 445.142 491.575 447.056 491.676 447.136L492.678 447.935L493.678 447.136C493.779 447.056 496.166 445.142 498.58 442.402C501.96 438.571 503.678 435.099 503.678 432.085V431.803C503.68 425.811 498.746 420.935 492.68 420.935C486.615 420.935 481.68 425.811 481.68 431.803ZM500.491 431.801V432.083C500.491 436.103 495.531 441.318 492.684 443.832C491.816 443.064 490.495 441.823 489.177 440.331C486.358 437.133 484.867 434.281 484.867 432.083V431.801C484.867 427.546 488.372 424.087 492.68 424.087C496.988 424.087 500.493 427.546 500.493 431.801H500.491Z" fill="white"/>
<path id="Vector_72" d="M487.896 431.96C487.896 434.565 490.041 436.685 492.678 436.685C495.315 436.685 497.46 434.565 497.46 431.96C497.46 429.354 495.315 427.232 492.678 427.232C490.041 427.232 487.896 429.352 487.896 431.96ZM494.275 431.96C494.275 432.828 493.559 433.533 492.68 433.533C491.801 433.533 491.085 432.828 491.085 431.96C491.085 431.091 491.801 430.384 492.68 430.384C493.559 430.384 494.275 431.091 494.275 431.96Z" fill="white"/>
</g>
</g>
</g>
</g>
<defs>
<clipPath id="clip0_6136_2">
<rect width="22" height="27.1333" fill="white" transform="translate(565.68 171.935)"/>
</clipPath>
<clipPath id="clip1_6136_2">
<rect width="22" height="27" fill="white" transform="translate(409.68 116.935)"/>
</clipPath>
<clipPath id="clip2_6136_2">
<rect width="22" height="27" fill="white" transform="translate(452.68 81.9354)"/>
</clipPath>
<clipPath id="clip3_6136_2">
<rect width="22" height="27" fill="white" transform="translate(440.68 134.935)"/>
</clipPath>
<clipPath id="clip4_6136_2">
<rect width="22" height="27" fill="white" transform="translate(484.68 95.9354)"/>
</clipPath>
<clipPath id="clip5_6136_2">
<rect width="22" height="27" fill="white" transform="translate(419.68 56.9354)"/>
</clipPath>
<clipPath id="clip6_6136_2">
<rect width="22" height="27" fill="white" transform="translate(513.68 115.935)"/>
</clipPath>
<clipPath id="clip7_6136_2">
<rect width="22" height="27" fill="white" transform="translate(466.68 121.935)"/>
</clipPath>
<clipPath id="clip8_6136_2">
<rect width="22" height="27" fill="white" transform="translate(391.68 86.9354)"/>
</clipPath>
<clipPath id="clip9_6136_2">
<rect width="22" height="27" fill="white" transform="translate(428.68 92.9354)"/>
</clipPath>
<clipPath id="clip10_6136_2">
<rect width="22" height="27" fill="white" transform="translate(416.68 154.935)"/>
</clipPath>
<clipPath id="clip11_6136_2">
<rect width="22" height="27" fill="white" transform="translate(462.68 157.935)"/>
</clipPath>
<clipPath id="clip12_6136_2">
<rect width="22" height="27" fill="white" transform="translate(519.68 472.935)"/>
</clipPath>
<clipPath id="clip13_6136_2">
<rect width="22" height="27" fill="white" transform="translate(535.68 436.935)"/>
</clipPath>
<clipPath id="clip14_6136_2">
<rect width="22" height="27" fill="white" transform="translate(543.68 494.935)"/>
</clipPath>
<clipPath id="clip15_6136_2">
<rect width="22" height="27" fill="white" transform="translate(447.68 298.935)"/>
</clipPath>
<clipPath id="clip16_6136_2">
<rect width="22" height="27" fill="white" transform="translate(513.68 332.935)"/>
</clipPath>
<clipPath id="clip17_6136_2">
<rect width="22" height="27" fill="white" transform="translate(485.68 382.935)"/>
</clipPath>
<clipPath id="clip18_6136_2">
<rect width="22" height="27.1333" fill="white" transform="translate(428.68 260.935)"/>
</clipPath>
<clipPath id="clip19_6136_2">
<rect width="22" height="27" fill="white" transform="translate(288.68 297.935)"/>
</clipPath>
<clipPath id="clip20_6136_2">
<rect width="22" height="27" fill="white" transform="translate(353.68 334.935)"/>
</clipPath>
<clipPath id="clip21_6136_2">
<rect width="22" height="27" fill="white" transform="translate(326.68 304.935)"/>
</clipPath>
<clipPath id="clip22_6136_2">
<rect width="22" height="27" fill="white" transform="translate(329.68 369.935)"/>
</clipPath>
<clipPath id="clip23_6136_2">
<rect width="22" height="27" fill="white" transform="translate(408.68 401.935)"/>
</clipPath>
<clipPath id="clip24_6136_2">
<rect width="22" height="27.1333" fill="white" transform="translate(299.68 363.935)"/>
</clipPath>
<clipPath id="clip25_6136_2">
<rect width="22" height="27.1333" fill="white" transform="translate(340.68 459.935)"/>
</clipPath>
<clipPath id="clip26_6136_2">
<rect width="22" height="27.1333" fill="white" transform="translate(428.68 488.935)"/>
</clipPath>
<clipPath id="clip27_6136_2">
<rect width="22" height="27" fill="white" transform="translate(453.68 478.935)"/>
</clipPath>
<clipPath id="clip28_6136_2">
<rect width="22" height="27" fill="white" transform="translate(426.68 420.935)"/>
</clipPath>
<clipPath id="clip29_6136_2">
<rect width="22" height="27" fill="white" transform="translate(449.68 436.935)"/>
</clipPath>
<clipPath id="clip30_6136_2">
<rect width="22" height="27" fill="white" transform="translate(449.68 406.935)"/>
</clipPath>
<clipPath id="clip31_6136_2">
<rect width="22" height="27" fill="white" transform="translate(481.68 452.935)"/>
</clipPath>
<clipPath id="clip32_6136_2">
<rect width="22" height="27" fill="white" transform="translate(436.68 459.935)"/>
</clipPath>
<clipPath id="clip33_6136_2">
<rect width="22" height="27" fill="white" transform="translate(487.68 482.935)"/>
</clipPath>
<clipPath id="clip34_6136_2">
<rect width="22" height="27" fill="white" transform="translate(417.68 445.935)"/>
</clipPath>
<clipPath id="clip35_6136_2">
<rect width="22" height="27" fill="white" transform="translate(481.68 420.935)"/>
</clipPath>
</defs>
</svg>
